<?xml version="1.0" standalone="no"?>
<!DOCTYPE svg PUBLIC "-//W3C//DTD SVG 1.1//EN" "http://www.w3.org/Graphics/SVG/1.1/DTD/svg11.dtd" >
<svg>
<metadata>
Created by FontForge 20090622 at Mon Mar 13 13:34:51 2017
 By deploy user
Copyright (c) 2009 by The Font Bureau, Inc.. All rights reserved.
</metadata>
<defs>
<font id="MillerBanner-Roman" horiz-adv-x="500" >
  <font-face 
    font-family="MillerBanner Roman"
    font-weight="400"
    font-stretch="normal"
    units-per-em="1000"
    panose-1="2 0 5 3 8 0 0 2 0 3"
    ascent="764"
    descent="-236"
    x-height="452"
    cap-height="683"
    bbox="-146 -230 1166 938"
    underline-thickness="20"
    underline-position="-113"
    unicode-range="U+0020-U+FB04"
  />
<missing-glyph horiz-adv-x="236" 
 />
    <glyph glyph-name="f_f" unicode="ff" horiz-adv-x="611" 
d="M33 0v7q24 1 44 7q27 9 27 45v377h-102v16h102v26q0 117 72 198q24 26 65 45t83 19q104 0 131 -66q26 36 69 54.5t88 18.5q52 0 79 -26t27 -62q0 -19 -15.5 -35.5t-40.5 -16.5q-22 0 -39 14t-17 38q0 18 5.5 34t5.5 26q-5 16 -29 16q-48 0 -71.5 -50t-27.5 -163
q0 -7 -0.5 -34t-0.5 -36h122v-16h-122v-375q0 -35 27 -45q17 -7 55 -9v-7h-239v7q18 1 39 7q27 9 27 45v377h-202v-375q0 -35 27 -45q19 -8 45 -9v-7h-234zM195 452h202v29q0 59 12 102q-22 0 -33 12.5t-11 31.5q0 15 5.5 28t12 23t7.5 11q-2 14 -20 27t-53 13
q-50 0 -86 -52t-36 -161v-64z" />
    <glyph glyph-name="f_i" unicode="fi" horiz-adv-x="578" 
d="M33 0v7q24 1 44 7q27 9 27 45v377h-102v16h102v29q0 121 75 202q25 26 64 45t83 19q81 0 118.5 -29.5t37.5 -76.5q0 -20 -15 -38.5t-42 -18.5q-24 0 -39 14.5t-15 37.5q0 9 1.5 17t5 15t5.5 10.5t7 9.5t6 7q-1 16 -18.5 29t-57.5 13q-50 0 -87.5 -59t-37.5 -167v-59h161
l124 8l4 -4v-394q0 -36 27 -46q19 -8 44 -9v-7h-230v7q20 1 41 7q27 9 27 45v327q-3 33 -14 50h-184v-372q0 -34 27 -45t50 -12v-7h-239z" />
    <glyph glyph-name="f_l" unicode="fl" horiz-adv-x="579" 
d="M33 0v7q24 1 44 7q27 9 27 45v377h-102v16h102v31q0 119 75 200q60 64 146 64q56 0 104 -23l54 22l4 -4v-677q0 -34 27 -46q23 -11 44 -12v-7h-231v7q22 1 42 7q28 9 28 45v534q-34 10 -34 46q0 14 6.5 25.5t14 18.5t7.5 8q-6 45 -72 45q-50 0 -87 -58.5t-37 -166.5v-59
h126v-16h-126v-372q0 -34 27 -45t50 -12v-7h-239z" />
    <glyph glyph-name="f_f_i" unicode="ffi" horiz-adv-x="871" 
d="M33 0v7q24 1 44 7q27 9 27 45v377h-102v16h102v26q0 117 72 198q24 26 65 45t83 19q54 0 88 -22t46 -52q24 34 68 57.5t93 23.5q81 0 118.5 -29.5t37.5 -76.5q0 -20 -15 -38.5t-42 -18.5q-24 0 -39 14.5t-15 37.5q0 9 1.5 17t5 15t5.5 10.5t7 9.5t6 7q-1 16 -18.5 29
t-57.5 13q-50 0 -87.5 -59t-37.5 -167v-59h161l124 8l4 -4v-394q0 -36 27 -46q19 -8 44 -9v-7h-230v7q20 1 41 7q27 9 27 45v327q-3 33 -14 50h-184v-375q0 -35 27 -45q17 -7 55 -9v-7h-239v7q18 1 39 7q27 9 27 45v377h-202v-375q0 -35 27 -45q19 -8 45 -9v-7h-234z
M195 452h202v27q0 51 15 104q-22 0 -34.5 13t-12.5 31q0 15 5.5 28t12 23t7.5 11q-2 14 -20 27t-53 13q-50 0 -86 -52t-36 -161v-64z" />
    <glyph glyph-name="f_f_l" unicode="ffl" horiz-adv-x="872" 
d="M33 0v7q24 1 44 7q27 9 27 45v377h-102v16h102v26q0 117 72 198q24 26 65 45t83 19q109 0 133 -75q27 37 72.5 59.5t88.5 22.5q56 0 104 -23l54 22l4 -4v-677q0 -34 27 -46q23 -11 44 -12v-7h-231v7q22 1 42 7q28 9 28 45v534q-34 10 -34 46q0 14 6.5 25.5t14 18.5t7.5 8
q-6 45 -72 45q-50 0 -87 -58.5t-37 -166.5v-59h126v-16h-126v-375q0 -35 27 -45q18 -7 49 -9v-7h-233v7q18 1 39 7q27 9 27 45v377h-202v-375q0 -35 27 -45q19 -8 45 -9v-7h-234zM195 452h202v29q0 56 15 101q-22 0 -34.5 13.5t-12.5 31.5q0 15 5.5 28t12 23t7.5 11
q-2 14 -20 27t-53 13q-50 0 -86 -52t-36 -161v-64z" />
    <glyph glyph-name="f_j" unicode="fj" horiz-adv-x="568" 
d="M293 -226q-48 0 -73 20t-25 52q0 18 15 34t38 16q22 0 38 -11.5t16 -34.5q0 -9 -5.5 -32.5t-5.5 -30.5q6 -2 22 -2q45 0 63.5 48.5t18.5 165.5v378q0 41 -31 59h-169v-372q0 -34 27 -45t51 -12v-7h-240v7q24 1 44 7q27 9 27 45v377h-102v16h102v31q0 119 75 200
q25 26 64 45t83 19q81 0 118.5 -29.5t37.5 -76.5q0 -20 -15 -38.5t-42 -18.5q-24 0 -39 14.5t-15 37.5q0 9 1.5 17t5 15t5.5 10.5t7 9.5t6 7q-1 16 -18.5 29t-57.5 13q-50 0 -87.5 -59t-37.5 -167v-59h163l124 8l4 -4v-415q0 -139 -63 -205q-59 -62 -130 -62z" />
    <glyph glyph-name="f_t" unicode="ft" horiz-adv-x="647" 
d="M397 436h-202v-372q0 -34 27 -45q24 -10 65 -12v-7h-254v7q24 1 44 7q27 9 27 45v377h-102v16h102v29q0 133 68 205q57 61 147 61q52 0 79 -26t27 -62q0 -19 -15.5 -35.5t-40.5 -16.5q-22 0 -39 14t-17 38q0 18 5.5 34t5.5 26q-5 16 -29 16q-48 0 -71.5 -50t-27.5 -163
q0 -7 -0.5 -34t-0.5 -36h204v149h87v-149h137v-16h-136v-296q0 -101 77 -101q31 0 49.5 25.5t23.5 59.5h10q-6 -57 -41 -95.5t-88 -38.5q-121 0 -121 138v308z" />
    <glyph glyph-name=".notdef" horiz-adv-x="236" 
 />
    <glyph glyph-name=".null" horiz-adv-x="0" 
 />
    <glyph glyph-name="nonmarkingreturn" horiz-adv-x="333" 
 />
    <glyph glyph-name="space" unicode=" " horiz-adv-x="236" 
 />
    <glyph glyph-name="exclam" unicode="!" horiz-adv-x="322" 
d="M157 212q-8 97 -32.5 250t-24.5 172q0 28 17 48t44 20t44 -20t17 -48q0 -19 -11 -86l-26 -164t-22 -172h-6zM160 -8q-27 0 -46 18.5t-19 46.5q0 27 19 46.5t46 19.5q28 0 47 -19.5t19 -46.5q0 -28 -19 -46.5t-47 -18.5z" />
    <glyph glyph-name="quotedbl" unicode="&#x22;" horiz-adv-x="392" 
d="M92 472q-8 54 -28.5 126t-20.5 84q0 24 14.5 39.5t40.5 15.5t40.5 -15.5t14.5 -39.5q0 -11 -9 -41.5t-22 -78.5t-20 -90h-10zM288 472q-8 54 -28.5 126t-20.5 84q0 24 14.5 39.5t40.5 15.5t40.5 -15.5t14.5 -39.5q0 -11 -9 -41.5t-22 -78.5t-20 -90h-10z" />
    <glyph glyph-name="numbersign" unicode="#" horiz-adv-x="514" 
d="M183 -7v170l-113 -28v78l113 27v123l-113 -28v77l113 28v187h10v-184l127 33v151h11v-148l113 28v-77l-113 -28v-123l113 28v-76l-113 -28v-210h-11v206l-127 -32v-174h-10zM193 243l127 33v123l-127 -33v-123z" />
    <glyph glyph-name="dollar" unicode="$" horiz-adv-x="601" 
d="M255 -142v137q-84 9 -136.5 48t-52.5 94q0 41 18.5 65t48.5 24q25 0 38.5 -15.5t13.5 -42.5q0 -28 -25.5 -46.5t-28.5 -24.5q0 -35 36.5 -59.5t87.5 -30.5v265q-38 5 -67 14.5t-55 27.5t-40 48t-14 71q0 67 45.5 117.5t130.5 64.5v98h14v-96q27 3 43 3q29 0 41 -2v95h14
v-96q73 -9 113 -43t40 -79q0 -36 -15.5 -58t-41.5 -22q-21 0 -36.5 13.5t-15.5 37.5t23 48t26 36q-5 17 -30.5 33.5t-62.5 22.5v-247q41 -7 67 -16t53.5 -27t40.5 -50t13 -78q0 -62 -43 -116.5t-131 -72.5v-141h-14v139q-34 -4 -57 -4q-21 0 -27 1v-136h-14zM269 5
q3 0 13 -0.5t14 -0.5q22 0 57 5v251q-36 7 -84 10v-265zM353 361v246q-10 2 -36 2q-22 0 -48 -4v-234zM367 13q46 13 69.5 49.5t23.5 76.5q0 48 -24 79.5t-69 38.5v-244zM255 374v228q-42 -11 -67 -43.5t-25 -69.5q0 -98 92 -115z" />
    <glyph glyph-name="percent" unicode="%" horiz-adv-x="847" 
d="M219 302q-66 0 -111.5 40.5t-45.5 114.5q0 70 48.5 116.5t108.5 46.5q68 0 116 -40.5t48 -121.5q0 -64 -50 -110t-114 -46zM223 310q37 0 61 41t24 105q0 71 -22.5 113.5t-64.5 42.5t-63.5 -43t-21.5 -108q0 -66 21.5 -108.5t65.5 -42.5zM621 -14q-65 0 -111 41t-46 114
q0 68 49 115.5t108 47.5q68 0 116 -40.5t48 -121.5q0 -65 -50 -110.5t-114 -45.5zM626 -7q35 0 59.5 43t24.5 104q0 69 -22.5 112.5t-63.5 43.5q-43 0 -64.5 -43.5t-21.5 -107.5q0 -66 22 -109t66 -43zM216 -96l-16 9l428 774l18 -9z" />
    <glyph glyph-name="ampersand" unicode="&#x26;" horiz-adv-x="743" 
d="M227 -16q-78 0 -134.5 42t-56.5 123q0 67 38.5 109.5t137.5 100.5q-80 119 -80 184q0 67 51 110.5t121 43.5q62 0 94 -39t32 -95q0 -92 -123 -166q67 -99 175 -233q31 44 53.5 108.5t22.5 101.5q0 38 -95 51v6h287v-6q-40 -4 -55.5 -6.5t-39.5 -12t-39 -26.5
q-11 -12 -51.5 -97t-75.5 -127q77 -97 104 -113q54 -32 130 -36v-7h-234l-70 86q-100 -102 -192 -102zM270 33q39 0 78 16t63 45l-61.5 81l-77.5 102t-53 74q-80 -50 -80 -160q0 -65 35.5 -111.5t95.5 -46.5zM301 406q83 51 83 160q0 53 -19 86.5t-59 33.5q-78 0 -78 -114
q0 -68 73 -166z" />
    <glyph glyph-name="quotesingle" unicode="'" horiz-adv-x="196" 
d="M92 472q-8 54 -28.5 126t-20.5 84q0 24 14.5 39.5t40.5 15.5t40.5 -15.5t14.5 -39.5q0 -11 -9 -41.5t-22 -78.5t-20 -90h-10z" />
    <glyph glyph-name="parenleft" unicode="(" horiz-adv-x="335" 
d="M290 -160q-51 39 -88.5 76t-76 92.5t-59 128t-20.5 158.5q0 83 20 154t57 126t75.5 94t90.5 79l23 -15q-53 -41 -91.5 -80t-73 -92t-52 -120t-17.5 -146q0 -81 19 -150t54.5 -122t74 -91.5t88.5 -75.5z" />
    <glyph glyph-name="parenright" unicode=")" horiz-adv-x="335" 
d="M45 -160l-24 16q50 37 88.5 75.5t74 91.5t54.5 122t19 150q0 79 -17.5 146t-52 120t-73 92t-91.5 80l23 15q52 -40 90.5 -79t75.5 -94t57 -126t20 -154q0 -86 -20.5 -158.5t-59 -128t-76 -92.5t-88.5 -76z" />
    <glyph glyph-name="asterisk" unicode="*" horiz-adv-x="382" 
d="M192 396q-25 0 -25 24q0 9 9.5 54t11.5 68q-20 -13 -52 -42t-38 -34q-21 -17 -35 3q-15 22 12 36q11 6 49 18.5t63 23.5q-24 11 -63.5 24t-51.5 19q-25 14 -11 36q16 20 37 3q9 -6 40 -35t50 -42q-2 24 -11.5 69t-9.5 53q0 24 25 24t25 -24q0 -8 -9.5 -54t-12.5 -68
q19 14 50 43t41 35q22 15 34 -5q13 -20 -9 -34q-11 -7 -51.5 -20.5t-63.5 -23.5q22 -9 60.5 -22t51.5 -20q27 -13 12 -36q-14 -21 -35 -5q-7 6 -38.5 35t-51.5 43q3 -22 12.5 -68t9.5 -54q0 -10 -6.5 -17t-18.5 -7z" />
    <glyph glyph-name="plus" unicode="+" horiz-adv-x="559" 
d="M262 19v223h-224v35h224v224h35v-224h223v-35h-223v-223h-35z" />
    <glyph glyph-name="comma" unicode="," horiz-adv-x="250" 
d="M57 -167l-5 10q43 26 72 67.5t33 91.5h-37q-36 0 -52.5 18t-16.5 45q0 23 17 41t45 18q84 0 84 -106q0 -42 -27 -83t-55 -63t-58 -39z" />
    <glyph glyph-name="hyphen" unicode="-" horiz-adv-x="373" 
d="M30 219v69h313v-69h-313z" />
    <glyph glyph-name="hyphen" unicode="&#xad;" horiz-adv-x="373" 
d="M30 219v69h313v-69h-313z" />
    <glyph glyph-name="period" unicode="." horiz-adv-x="250" 
d="M126 -9q-28 0 -47.5 19t-19.5 47t19.5 47.5t47.5 19.5t47.5 -19.5t19.5 -47.5t-19.5 -47t-47.5 -19z" />
    <glyph glyph-name="slash" unicode="/" horiz-adv-x="403" 
d="M58 -208l-27 8l313 952l27 -8z" />
    <glyph glyph-name="zero" unicode="0" horiz-adv-x="614" 
d="M302 -14q-118 0 -185 87.5t-67 215.5q0 148 77.5 239.5t184.5 91.5q118 0 185 -87t67 -216q0 -148 -77 -239.5t-185 -91.5zM305 -5q69 0 110 86t41 223q0 134 -35 220.5t-112 86.5q-69 0 -110 -86t-41 -223t35 -222t112 -85z" />
    <glyph glyph-name="one" unicode="1" horiz-adv-x="427" 
d="M78 0v7q43 2 76 12q33 9 33 44v493l-130 -8v8q62 8 116 20q73 17 111 40h8q-9 -51 -9 -158v-390q0 -35 29 -48q21 -10 75 -13v-7h-309z" />
    <glyph glyph-name="two" unicode="2" horiz-adv-x="557" 
d="M53 0v25q144 109 245 215q64 67 89 123.5t25 123.5q0 59 -26.5 91t-75.5 32q-52 0 -92 -35t-57.5 -79.5t-17.5 -86.5q0 -77 55 -77q24 0 45 11.5t30 21t22 27.5l6 -5q-53 -86 -143 -86q-38 0 -66 25t-28 73q0 76 76.5 148.5t188.5 72.5q82 0 131 -41.5t49 -114.5
q0 -100 -76.5 -177.5t-258.5 -180.5l-29 -25h269q60 0 104 93l9 -3l-59 -171h-415z" />
    <glyph glyph-name="three" unicode="3" horiz-adv-x="565" 
d="M216 -26q-73 0 -130 36.5t-57 100.5q0 38 22.5 60t51.5 22q23 0 37 -12.5t14 -36.5q0 -22 -27.5 -42t-27.5 -37q0 -34 31 -58t86 -24q67 0 125.5 67.5t58.5 150.5q0 117 -75 117q-38 0 -111 -66l-14 16l43.5 30.5t43 30.5l34 27t32 31l21 30.5t16.5 38t4 41.5
q0 113 -93 113q-49 0 -93 -41.5t-44 -102.5q0 -60 49 -60q33 0 68 32l4 -5q-19 -22 -52 -43.5t-54 -21.5q-44 0 -68 21.5t-24 54.5q0 69 73 122.5t168 53.5q45 0 80 -14t53 -36t26.5 -43t8.5 -40q0 -45 -42 -87.5t-132 -58.5l-18 -15q24 4 53 4q58 0 102.5 -32t44.5 -104
q0 -101 -81.5 -160.5t-206.5 -59.5z" />
    <glyph glyph-name="four" unicode="4" horiz-adv-x="569" 
d="M192 0v7q55 3 68 8q28 9 28 46v150h-264v8l340 410h17v-397h27q55 0 72 13q27 22 29 76h7v-204h-7q-2 61 -30 83q-14 11 -69 11h-29v-144q0 -36 27 -48q22 -9 67 -12v-7h-283zM57 232h231v277z" />
    <glyph glyph-name="five" unicode="5" horiz-adv-x="522" 
d="M220 -14q-84 0 -134.5 34.5t-50.5 84.5q0 35 20 49.5t43 14.5q21 0 33 -13t12 -33q0 -15 -11.5 -36t-11.5 -38q10 -55 99 -55q72 0 106.5 70.5t34.5 166.5q0 67 -32 104t-84 37q-41 0 -82 -24t-60 -68l-13 3l76 334h10q12 -14 52.5 -26.5t93.5 -12.5q98 0 158 46l4 -4
q-21 -41 -59 -70.5t-80 -41.5t-70.5 -16.5t-48.5 -4.5q-62 0 -74 2l-40 -166q67 61 151 61q85 0 143 -48.5t58 -145.5q0 -88 -73.5 -146t-169.5 -58z" />
    <glyph glyph-name="six" unicode="6" horiz-adv-x="566" 
d="M272 -14q-91 0 -152.5 76.5t-61.5 208.5q0 175 105.5 302t235.5 127q68 0 99 -32.5t31 -67.5q0 -56 -51 -56q-16 0 -26.5 9.5t-14.5 20t-10 32t-10 32.5q-10 27 -23 36.5t-36 9.5q-66 0 -122.5 -99.5t-75.5 -251.5l6 -2q56 93 165 93q70 0 124.5 -58.5t54.5 -148.5
q0 -30 -7 -60.5t-24.5 -62t-43.5 -55t-68 -38.5t-95 -15zM275 -5q38 0 65.5 22.5t40 59.5t17.5 71t5 70q0 85 -28.5 135t-88.5 50q-52 0 -91 -54.5t-39 -151.5q0 -92 32 -147t87 -55z" />
    <glyph glyph-name="seven" unicode="7" horiz-adv-x="506" 
d="M212 -120q-26 0 -38.5 16t-12.5 54q0 34 36.5 117t84.5 167q93 164 170 272h-294q-31 0 -55.5 -21.5t-36 -45t-16.5 -48.5l-10 3l60 257h8l8 -56h402v-9q-61 -88 -95.5 -151.5t-70.5 -156.5q-34 -89 -51.5 -155t-22.5 -157q-6 -86 -66 -86z" />
    <glyph glyph-name="eight" unicode="8" horiz-adv-x="538" 
d="M249 -15q-87 0 -143 43.5t-56 107.5q0 54 43.5 95.5t100.5 63.5q-66 30 -94.5 63t-28.5 90q0 75 63.5 126.5t141.5 51.5q87 0 137 -40t50 -107q0 -35 -30.5 -73.5t-95.5 -66.5q25 -10 41 -17t39.5 -21.5t36.5 -30t23.5 -39.5t10.5 -52q0 -86 -73 -140t-166 -54zM258 -4
q60 0 101.5 41t41.5 101q0 76 -110 122q-49 20 -84 30q-37 -20 -60.5 -62.5t-23.5 -92.5q0 -57 32.5 -98t102.5 -41zM324 345q75 30 75 147q0 52 -31.5 88t-90.5 36q-58 0 -90.5 -37.5t-32.5 -85.5q0 -73 76 -114q31 -17 94 -34z" />
    <glyph glyph-name="nine" unicode="9" horiz-adv-x="566" 
d="M159 -102q-64 0 -99 32t-35 70q0 58 54 58q22 0 32.5 -16.5t16 -46t8.5 -36.5q19 -47 64 -47q81 0 137.5 107.5t69.5 250.5l-7 1q-65 -89 -162 -89q-74 0 -127 55.5t-53 151.5q0 90 59.5 160.5t164.5 70.5q43 0 81 -15t71.5 -47t53 -92t19.5 -141q0 -111 -40.5 -207.5
t-121.5 -158t-186 -61.5zM282 209q51 0 90 45.5t40 144.5q0 97 -37 154t-93 57q-36 0 -61 -19.5t-37 -52.5t-16.5 -64t-4.5 -66q0 -199 119 -199z" />
    <glyph glyph-name="colon" unicode=":" horiz-adv-x="279" 
d="M139 -8q-27 0 -46 18.5t-19 46.5q0 27 19 46.5t46 19.5t46.5 -19.5t19.5 -46.5t-19.5 -46t-46.5 -19zM139 323q-27 0 -46 19t-19 46q0 28 19 47t46 19t46.5 -19t19.5 -47q0 -27 -19.5 -46t-46.5 -19z" />
    <glyph glyph-name="semicolon" unicode=";" horiz-adv-x="279" 
d="M73 -167l-3 6q43 25 69.5 68.5t29.5 95.5h-32q-35 0 -51 17.5t-16 44.5q0 22 17 40t44 18q41 0 61.5 -27.5t20.5 -75.5q0 -64 -45.5 -112.5t-94.5 -74.5zM139 323q-27 0 -46 19t-19 46q0 28 19 47t46 19t46.5 -19t19.5 -47q0 -27 -19.5 -46t-46.5 -19z" />
    <glyph glyph-name="less" unicode="&#x3c;" horiz-adv-x="559" 
d="M496 34l-442 213v26l442 213v-36l-397 -190l397 -190v-36z" />
    <glyph glyph-name="equal" unicode="=" horiz-adv-x="559" 
d="M58 157v34h442v-34h-442zM58 329v34h442v-34h-442z" />
    <glyph glyph-name="greater" unicode="&#x3e;" horiz-adv-x="559" 
d="M62 34v36l397 190l-397 190v36l442 -213v-26z" />
    <glyph glyph-name="question" unicode="?" horiz-adv-x="482" 
d="M178 180v186q81 11 120.5 44t39.5 107q0 89 -33 130t-87 41q-20 0 -41 -8t-30 -19q0 -2 6.5 -23.5t6.5 -45.5t-19 -38t-37 -14q-25 0 -38 16t-13 41q0 40 46 71t121 31q102 0 157 -55.5t55 -144.5q0 -86 -65 -144.5t-173 -67.5l-6 -107h-10zM185 -12q-28 0 -47.5 19
t-19.5 47t19.5 47.5t47.5 19.5t47.5 -19.5t19.5 -47.5t-19.5 -47t-47.5 -19z" />
    <glyph glyph-name="at" unicode="@" horiz-adv-x="996" 
d="M509 -215q-80 0 -154 25.5t-134 73.5t-96 124.5t-36 170.5q0 127 64 236.5t175.5 175t243.5 65.5q151 0 239 -92.5t88 -229.5q0 -121 -74 -211t-169 -90q-40 0 -66.5 22t-26.5 64l-3 1q-21 -36 -53 -60.5t-65 -24.5q-39 0 -71.5 30.5t-32.5 102.5q0 33 15.5 76t42.5 84
t70.5 69.5t92.5 28.5q29 0 50.5 -16.5t25.5 -46.5h3l22 57h61l-93 -266q-11 -29 -11 -56q0 -55 46 -55q80 0 149.5 84.5t69.5 212.5q0 129 -85 212.5t-225 83.5q-57 0 -113.5 -19.5t-107 -58t-89.5 -92t-62 -126.5t-23 -156q0 -174 98.5 -273t242.5 -99q151 0 262.5 79
t162.5 228l8 -3q-46 -155 -168.5 -243t-273.5 -88zM452 54q64 0 116 97l64 190q-12 73 -76 73q-40 0 -76.5 -47.5t-57 -110.5t-20.5 -115q0 -87 50 -87z" />
    <glyph glyph-name="A" unicode="A" horiz-adv-x="680" 
d="M-24 0v7q36 2 63 17q30 18 57 80l237 590h18l252 -620q15 -38 41 -53q21 -12 61 -14v-7h-315v7q100 6 106 34q2 11 -4 28l-71 183h-248q-28 -68 -50 -141q-14 -44 -14 -60q0 -37 122 -44v-7h-255zM178 266h237l-119 301z" />
    <glyph glyph-name="B" unicode="B" horiz-adv-x="667" 
d="M43 0v7q47 3 74 13q31 12 31 48v541q0 39 -31 52q-30 13 -70 15v7h342q43 0 84.5 -11t76.5 -43.5t35 -82.5q0 -78 -48 -116.5t-135 -57.5v-9q35 -2 70 -12.5t70 -30.5t57 -56t22 -83q0 -60 -39 -103t-89 -60.5t-102 -17.5h-348zM348 12q56 0 91.5 32t47 71.5t11.5 85.5
q0 64 -42.5 109.5t-116.5 45.5q-50 0 -86 -2v-281q5 -34 25 -47.5t70 -13.5zM253 368h63q77 0 113 44.5t36 114.5q0 69 -38.5 106.5t-90.5 37.5q-59 0 -83 -1v-302z" />
    <glyph glyph-name="C" unicode="C" horiz-adv-x="653" 
d="M368 -15q-149 0 -240 95t-91 253q0 155 100.5 259t251.5 104q114 0 175 -57l38 54h9l4 -247h-9q-31 100 -92 168t-150 68q-95 0 -151 -87.5t-56 -253.5q0 -139 65 -229t175 -90q163 0 233 157l11 -6q-83 -188 -273 -188z" />
    <glyph glyph-name="D" unicode="D" horiz-adv-x="779" 
d="M43 0v7q48 0 74 10q31 12 31 49v543q0 41 -31 54q-25 11 -70 13v7h322q45 0 91.5 -9.5t98.5 -34t91.5 -62t65.5 -100t26 -140.5q0 -84 -34 -150.5t-90.5 -106t-125 -60t-143.5 -20.5h-306zM363 12q127 0 191.5 88.5t64.5 237.5q0 146 -76.5 240t-201.5 94q-43 0 -87 -2
v-581q5 -39 29.5 -58t79.5 -19z" />
    <glyph glyph-name="E" unicode="E" horiz-adv-x="666" 
d="M38 0v7q57 3 79 12q31 12 31 49v541q0 40 -31 52q-29 12 -79 15v7h551v-155h-9q-9 37 -45.5 86.5t-66.5 53.5q-32 4 -101 4h-113v-312h100q26 0 45 6.5t24 11t15 14.5q11 11 22.5 44t13.5 55h9v-279h-9q-1 21 -14 57.5t-22 46.5q-30 32 -84 32h-100v-245q0 -60 21 -75.5
t98 -15.5q118 0 148 10q15 5 22 13q21 21 51.5 76t39.5 81h9l-13 -192h-592z" />
    <glyph glyph-name="F" unicode="F" horiz-adv-x="612" 
d="M38 0v7q62 3 79 10q31 12 31 49v543q0 40 -31 52q-29 12 -79 15v7h558v-162h-9q-12 39 -51 91t-69 56q-32 4 -98 4h-115v-314h101q55 0 89 31q11 10 22 40.5t14 58.5h10v-281h-10q-2 23 -14 60t-22 47q-32 32 -89 32h-101v-279q0 -36 31 -49q19 -8 76 -11v-7h-323z" />
    <glyph glyph-name="G" unicode="G" horiz-adv-x="746" 
d="M645 -22l-55 61q-140 -54 -246 -54q-56 0 -110 22.5t-98 64t-71.5 108t-27.5 146.5q0 156 108 263t269 107q56 0 108.5 -18.5t78.5 -41.5l35 57h9l5 -240h-8q-30 94 -97.5 161t-163.5 67q-105 0 -163.5 -92t-58.5 -256q0 -144 59 -237.5t165 -93.5q83 0 124 36t47 90v91
q0 46 -33 59q-33 12 -99 16v8h331v-8q-62 -10 -71 -14q-30 -14 -30 -52v-247z" />
    <glyph glyph-name="H" unicode="H" horiz-adv-x="853" 
d="M47 0v7q51 3 70 10q31 12 31 49v543q0 39 -31 52t-70 15v7h310v-7q-40 -2 -72 -13q-31 -10 -31 -49v-252h345v247q0 39 -31 52t-72 15v7h310v-7q-37 -2 -70 -13q-31 -10 -31 -49v-543q0 -37 31 -52q18 -9 70 -12v-7h-310v7q54 3 72 10q31 12 31 49v282h-345v-277
q0 -39 31 -52q22 -9 72 -12v-7h-310z" />
    <glyph glyph-name="I" unicode="I" horiz-adv-x="406" 
d="M46 0v7q55 3 73 10q31 12 31 49v543q0 39 -31 52t-73 15v7h314v-7q-41 -2 -73 -13q-31 -10 -31 -49v-543q0 -39 31 -52q22 -9 73 -12v-7h-314z" />
    <glyph glyph-name="J" unicode="J" horiz-adv-x="494" 
d="M138 -17q-72 0 -105 29t-33 65q0 30 19.5 51t49.5 21t47.5 -18t17.5 -46q0 -54 -61 -76v-5q18 -9 48 -9q28 0 49.5 6t35.5 14t23.5 25t14.5 30.5t7.5 40t3 43.5t0.5 50v408q0 35 -31 49q-27 12 -81 15v7h325v-7q-44 -2 -76 -13q-31 -10 -31 -49v-428q0 -28 -14.5 -62
t-41 -66t-71 -53.5t-96.5 -21.5z" />
    <glyph glyph-name="K" unicode="K" horiz-adv-x="738" 
d="M47 0v7q51 3 70 10q31 12 31 49v543q0 38 -31 51q-34 14 -70 16v7h310v-7q-40 -2 -72 -13q-31 -10 -31 -49v-264h11q111 90 194 173.5t83 116.5q0 31 -94 36v7h264v-7h-8q-9 -1 -13.5 -1t-15.5 -1.5t-18.5 -3.5t-19 -6t-20.5 -8.5t-19.5 -12t-19.5 -16.5
q-153 -159 -232 -225q122 -127 270 -314q37 -47 83 -67q27 -12 72 -14v-7h-366v7q28 1 45 3.5t34 12.5t17 28q0 25 -84 125.5t-147 163.5h-16v-269q0 -36 31 -49q30 -13 72 -15v-7h-310z" />
    <glyph glyph-name="L" unicode="L" horiz-adv-x="629" 
d="M44 0v7q50 3 73 12q31 12 31 49v543q0 36 -31 50q-28 13 -72 15v7h313v-7q-52 -3 -73 -10q-31 -10 -31 -50v-513q0 -60 21 -75.5t98 -15.5q106 0 133 9q15 5 23 14q21 21 51.5 77t39.5 82h9l-13 -194h-572z" />
    <glyph glyph-name="M" unicode="M" horiz-adv-x="959" 
d="M18 0v7q2 0 13.5 1t20 2.5l20.5 3.5t22 5.5t17 8.5q33 23 33 130v408q0 60 -31 85q-29 23 -90 25v7h219l248 -524l185 439q19 45 23 85h218v-7q-42 -2 -74 -13q-31 -10 -31 -49v-543q0 -34 31 -49q24 -12 75 -15v-7h-330v7q69 4 87 13q32 17 32 51v562l-263 -622h-11
q-19 63 -53 139l-221 472v-464q0 -101 34 -129q21 -17 103 -22v-7h-277z" />
    <glyph glyph-name="N" unicode="N" horiz-adv-x="776" 
d="M639 -7l-481 592v-409q0 -114 34 -139q14 -11 49.5 -20t53.5 -10v-7h-277v7q15 1 49 10t44 17q33 26 33 137v392q0 22 -11 48t-26 38q-31 24 -102 27v7h206l431 -529v348q0 122 -34 149q-27 22 -102 25v7h275v-7q-19 -1 -48 -7.5t-44 -16.5q-33 -23 -33 -150v-509h-17z
" />
    <glyph glyph-name="O" unicode="O" horiz-adv-x="775" 
d="M384 -16q-139 0 -239 94q-107 101 -107 256q0 164 97 261q102 104 253 104q147 0 254 -104q45 -45 70 -110.5t25 -138.5q0 -168 -104 -266q-101 -96 -249 -96zM388 -4q112 0 170 96t58 251q0 68 -12.5 127.5t-38.5 109t-71.5 78.5t-105.5 29q-107 0 -168 -92.5
t-61 -255.5q0 -97 24 -172.5t77 -123t128 -47.5z" />
    <glyph glyph-name="P" unicode="P" horiz-adv-x="621" 
d="M45 0v7q51 3 72 11q31 12 31 50v543q0 41 -31 51q-37 12 -76 14v7h335q92 0 153 -43.5t61 -118.5q0 -97 -77 -152.5t-181 -55.5h-78v-245q0 -38 31 -50q23 -9 79 -11v-7h-319zM254 325h49q41 0 72 13.5t47.5 33t27 44.5t13.5 44t3 36q0 31 -7 59.5t-22 55.5t-44.5 43
t-70.5 16h-68v-345z" />
    <glyph glyph-name="Q" unicode="Q" horiz-adv-x="783" 
d="M649 -147q-63 0 -114.5 34t-72.5 111q-39 -12 -78 -12q-141 0 -239 92q-107 101 -107 256q0 164 97 261q102 104 253 104q147 0 254 -104q45 -45 70 -110.5t25 -138.5q0 -197 -173 -300q15 -69 61 -100t98 -31q38 0 73 22.5t54 51.5l7 -5q-30 -45 -86 -88t-122 -43z
M554 71q62 75 62 272q0 67 -12.5 126t-38.5 109t-71.5 79.5t-105.5 29.5q-106 0 -167.5 -93.5t-61.5 -254.5q0 -167 63 -251q25 64 69 94t95 30q56 0 103 -38.5t65 -102.5zM388 0q28 0 71 9q-15 105 -39 142.5t-71 37.5q-29 0 -64 -27.5t-55 -83.5q68 -78 158 -78z" />
    <glyph glyph-name="R" unicode="R" horiz-adv-x="737" 
d="M607 -11q-59 0 -89.5 41t-41.5 128q-3 25 -6 41.5t-9.5 40.5t-16.5 39.5t-24.5 31t-36.5 23t-50 7.5h-79v-273q0 -38 31 -50q21 -8 73 -11v-7h-313v7q51 3 72 11q31 12 31 50v544q0 40 -31 50q-36 12 -72 14v7h349q54 0 100.5 -15t80 -51t33.5 -88q0 -39 -18.5 -70.5
t-49.5 -51.5t-61.5 -32t-65.5 -20v-10q136 -15 160 -104q8 -29 19 -83t17 -77q13 -47 51 -47q28 0 46 27t18 76v15h13v-15q0 -71 -33 -109.5t-97 -38.5zM254 355h62q73 0 121 37t48 117q0 81 -40.5 121t-102.5 40h-88v-315z" />
    <glyph glyph-name="S" unicode="S" horiz-adv-x="547" 
d="M284 -13q-60 0 -111 17t-78 38l-35 -52h-9l-7 234h9q42 -107 94.5 -165.5t138.5 -58.5q70 0 104.5 41t34.5 102q0 45 -27 78.5t-73 52.5q-113 45 -143 59q-118 52 -118 178q0 79 57 132t143 53q100 0 169 -53l35 50h8l5 -227h-9q-14 45 -30.5 80.5t-41.5 68t-60.5 50.5
t-79.5 18q-45 0 -81 -32t-36 -87q0 -43 22.5 -72.5t67.5 -53.5q28 -15 74 -33t62 -25q73 -34 107 -72.5t34 -112.5q0 -91 -64.5 -149.5t-161.5 -58.5z" />
    <glyph glyph-name="T" unicode="T" horiz-adv-x="642" 
d="M155 0v7q59 3 82 12q31 12 31 50v602h-57q-49 0 -81 -4q-29 -4 -66 -61t-47 -97h-9v174h626v-174h-9q-10 40 -47 97t-66 61q-32 4 -81 4h-57v-600q0 -37 31 -50q26 -11 82 -14v-7h-332z" />
    <glyph glyph-name="U" unicode="U" horiz-adv-x="791" 
d="M400 -16q-125 0 -195 56.5t-70 139.5v433q0 34 -31 50q-20 10 -70 13v7h311v-7q-40 -2 -72 -13q-31 -10 -31 -49v-421q0 -31 7 -58t25 -55t56.5 -44t93.5 -16q110 0 165 55t55 127v311q0 112 -34 134q-41 26 -102 29v7h275v-7q-17 -1 -47.5 -8t-44.5 -16
q-33 -21 -33 -133v-321q0 -47 -17.5 -84.5t-44.5 -61t-62.5 -39.5t-68.5 -22.5t-65 -6.5z" />
    <glyph glyph-name="V" unicode="V" horiz-adv-x="676" 
d="M324 -8q-55 154 -147 380.5l-96 236.5q-13 35 -41 51q-25 14 -61 16v7h310v-7q-102 -5 -102 -37q0 -12 5 -25q5 -14 35.5 -88.5l75 -186l80.5 -209.5l169 402q24 57 24 93q0 43 -122 51v7h249v-7q-28 -1 -58 -18q-27 -16 -54 -75l-250 -591h-17z" />
    <glyph glyph-name="W" unicode="W" horiz-adv-x="973" 
d="M275 -8l-114 364t-80 253q-9 33 -37 49q-27 16 -60 18v7h305v-7q-35 -2 -69.5 -11.5t-34.5 -25.5q0 -13 4 -25l149 -470l144 392q-26 102 -55 121q-27 17 -72 19v7h301v-7q-35 -2 -68 -11.5t-33 -25.5q0 -11 4 -25l27.5 -84l59 -179.5l67.5 -204.5q95 265 131 386
q20 69 20 90q0 24 -37 37.5t-80 16.5v7h249v-7q-27 -1 -60 -20q-31 -18 -52 -73q-47 -125 -210 -591h-23q-45 151 -164 516l-189 -516h-23z" />
    <glyph glyph-name="X" unicode="X" horiz-adv-x="762" 
d="M-4 0v7q41 2 69 14q42 18 82 67l188 231l-201 276q-36 49 -70 67q-23 12 -66 14v7h365v-7q-81 -4 -101 -19q-11 -9 -11 -22q0 -23 76 -132l78 -108q70 82 117 148q51 71 51 89q0 39 -107 44v7h271v-7q-42 -2 -70 -14q-42 -18 -82 -67q-18 -21 -169 -212l216 -295
q40 -51 70 -69q16 -9 65 -12v-7h-365v7q113 6 113 44q0 22 -68 117l-101 138q-104 -127 -129 -161q-58 -75 -58 -94q0 -39 108 -44v-7h-271z" />
    <glyph glyph-name="Y" unicode="Y" horiz-adv-x="635" 
d="M148 0v7q59 3 82 12q31 12 31 50v189q0 23 -26 75q-65 128 -142 258q-29 51 -60 69q-25 14 -65 16v7h322v-7q-101 -6 -101 -35q0 -10 49 -100l126 -227q94 155 129 220q42 78 42 94q0 40 -116 48v7h241v-7q-26 -2 -45 -14q-34 -20 -56 -51q-40 -58 -164 -277
q-18 -33 -23 -53.5t-5 -58.5v-151q0 -37 31 -50q26 -11 82 -14v-7h-332z" />
    <glyph glyph-name="Z" unicode="Z" horiz-adv-x="626" 
d="M4 0v12l480 659h-205q-56 0 -81 -5q-37 -7 -81.5 -64t-62.5 -103h-9l21 184h539v-12l-480 -659h227q120 0 147 26q30 28 63 79.5t47 87.5h9l-23 -205h-591z" />
    <glyph glyph-name="bracketleft" unicode="[" horiz-adv-x="549" 
d="M481 -199l-5 3q19 19 19 44q0 9 -2 14.5t-9.5 14.5t-28 13.5t-52.5 4.5q-67 0 -129.5 -10.5t-175.5 -35.5l-23 -8v886l23 -8q112 -25 175 -35.5t130 -10.5q33 0 53 4t28 12t9.5 14t1.5 17q0 21 -16 43l5 3q9 -7 17.5 -24.5t8.5 -35.5q0 -52 -32.5 -82t-97.5 -30
q-38 0 -76 11t-60.5 22.5t-69.5 39.5t-71 41v-848q24 13 71 41t69.5 39.5t60.5 22.5t76 11q65 0 97.5 -30t32.5 -82q0 -32 -29 -61z" />
    <glyph glyph-name="backslash" unicode="\" horiz-adv-x="403" 
d="M344 -208l-313 952l27 8l313 -952z" />
    <glyph glyph-name="bracketright" unicode="]" horiz-adv-x="549" 
d="M71 -199q-29 29 -29 61q0 52 32.5 82t96.5 30q38 0 76 -11t60.5 -22.5t70.5 -39.5l71 -41v848l-71 -41t-70.5 -39.5t-60.5 -22.5t-76 -11q-64 0 -96.5 30t-32.5 82q0 18 8.5 35.5t17.5 24.5l5 -3q-16 -22 -16 -43q0 -11 1.5 -17t9.5 -14t28 -12t53 -4q67 0 129.5 10.5
t174.5 35.5l23 8v-886l-23 8q-114 26 -176 36t-128 10q-32 0 -52.5 -4.5t-28 -13.5t-9.5 -14.5t-2 -14.5q0 -25 19 -44z" />
    <glyph glyph-name="asciicircum" unicode="^" horiz-adv-x="444" 
d="M222 544l-167 -134l-5 5l66.5 99.5t52.5 80.5q15 24 52 24q38 0 54 -24l119 -180l-5 -5z" />
    <glyph glyph-name="underscore" unicode="_" horiz-adv-x="597" 
d="M-7 -144v35h610v-35h-610z" />
    <glyph glyph-name="grave" unicode="`" 
d="M344 524l-149 114q-20 16 -28 27t-8 28q0 15 12 26.5t29 11.5q36 0 61 -43q10 -16 38.5 -70t49.5 -90z" />
    <glyph glyph-name="a" unicode="a" horiz-adv-x="490" 
d="M153 -12q-52 0 -84 29t-32 77q0 55 25.5 81.5t72.5 44.5q18 7 81 27.5t87 33.5v71q0 12 -2 24.5t-9.5 33t-26.5 33t-48 12.5q-41 0 -63 -27q0 -14 5.5 -41t5.5 -37q0 -17 -16 -30t-42 -13q-23 0 -34 15t-11 37q0 43 50.5 74.5t110.5 31.5q42 0 69.5 -4.5t53 -19
t37.5 -45.5t12 -79q0 -51 -2.5 -136t-2.5 -95q0 -15 12.5 -33t34.5 -18q23 0 35.5 25.5t15.5 58.5h10q-8 -129 -106 -129q-65 0 -88 67h-3q-59 -69 -148 -69zM202 23q60 0 98 48l4 196q-84 -26 -127 -61t-43 -97q0 -41 18 -63.5t50 -22.5z" />
    <glyph glyph-name="b" unicode="b" horiz-adv-x="551" 
d="M86 -21l-8 2q4 53 4 185v497q-3 37 -27 53q-17 11 -66 13v6l180 11l4 -4v-337l3 -1q56 61 135 61q90 0 149 -63t59 -178q0 -101 -68 -169.5t-159 -68.5q-79 0 -158 50zM284 -4q58 0 95.5 63t37.5 164q0 85 -35 148t-105 63q-64 0 -104 -47v-299q12 -34 39 -63t72 -29z
" />
    <glyph glyph-name="c" unicode="c" horiz-adv-x="435" 
d="M249 -12q-105 0 -161 66t-56 174q0 96 61.5 166.5t160.5 70.5q74 0 114.5 -33.5t40.5 -82.5q0 -25 -15.5 -40.5t-40.5 -15.5q-19 0 -35.5 12t-16.5 38q0 24 11 46.5t11 29.5q-3 16 -22.5 26t-46.5 10q-53 0 -87 -55t-34 -163q0 -97 37.5 -156t102.5 -59q100 0 152 91
l9 -6q-29 -52 -78.5 -85.5t-106.5 -33.5z" />
    <glyph glyph-name="d" unicode="d" horiz-adv-x="565" 
d="M245 -12q-90 0 -151.5 67t-61.5 177q0 100 68.5 166.5t159.5 66.5q56 0 121 -27v225q-3 35 -27 51q-18 12 -87 15v6l201 11l4 -4v-665q3 -33 26 -49q16 -11 59 -13v-6l-168 -11l-7 7v41l-3 1q-56 -59 -134 -59zM279 17q59 0 102 46v307q-11 33 -39 58.5t-74 25.5
q-62 0 -98 -64.5t-36 -168.5q0 -85 35 -144.5t110 -59.5z" />
    <glyph glyph-name="e" unicode="e" horiz-adv-x="456" 
d="M253 -12q-108 0 -164.5 68.5t-56.5 173.5q0 95 57.5 165t152.5 70q96 0 141.5 -53t45.5 -133v-9h-298v-17q0 -234 149 -234q55 0 87.5 22.5t63.5 72.5l8 -5q-27 -55 -76 -88t-110 -33zM131 280l201 2q0 173 -91 173q-47 0 -77.5 -48.5t-32.5 -126.5z" />
    <glyph glyph-name="f" unicode="f" horiz-adv-x="318" 
d="M33 0v7q24 1 44 7q27 9 27 45v377h-102v16h102v29q0 133 68 205q57 61 147 61q52 0 79 -26t27 -62q0 -19 -15.5 -35.5t-40.5 -16.5q-22 0 -39 14t-17 38q0 18 5.5 34t5.5 26q-5 16 -29 16q-48 0 -71.5 -50t-27.5 -163q0 -7 -0.5 -34t-0.5 -36h126v-16h-126v-372
q0 -34 27 -45q24 -10 65 -12v-7h-254z" />
    <glyph glyph-name="g" unicode="g" horiz-adv-x="508" 
d="M236 -226q-218 0 -218 122q0 43 45 72t123 31v7q-115 26 -115 92q0 14 7 26.5t13.5 19t24 15.5l21.5 11t23 9v6q-113 45 -113 133q0 67 51 107t128 40q30 0 61.5 -7.5t51.5 -15t24 -7.5q48 30 101 30q18 0 32.5 -14t14.5 -34q0 -22 -11 -35.5t-31 -13.5q-46 0 -43 74
q-39 0 -65 -19v-7q41 -44 41 -103q0 -62 -52 -102t-117 -40h-68q-35 -17 -35 -43q0 -21 17.5 -32t38 -13.5t49.5 -3.5h12l62 -3.5t50 -2.5q49 -2 88.5 -39.5t39.5 -96.5q0 -73 -63.5 -118t-187.5 -45zM253 -216q73 0 117.5 34t44.5 92q0 59 -56 77q-51 7 -158 7
q-55 -11 -80 -35t-25 -69q0 -39 36.5 -72.5t120.5 -33.5zM224 180q42 0 63.5 39.5t21.5 96.5t-21 98t-65 41t-63 -39t-19 -97q0 -59 21 -99t62 -40z" />
    <glyph glyph-name="h" unicode="h" horiz-adv-x="575" 
d="M23 0v7q24 1 44 7q27 9 27 45v604q-4 37 -27 53q-15 10 -67 13v6l181 11l4 -4v-359h2l12 12t14 13.5t13.5 12t16 12.5t16 10t19 9.5l20.5 6t24.5 5t26.5 1.5q68 0 102 -42t34 -116v-244q0 -36 26 -48q15 -6 44 -8v-7h-236v7q28 2 47 7q27 9 27 45v260q0 49 -24.5 78
t-58.5 29q-49 0 -81.5 -21.5t-43.5 -44.5v-296q0 -36 27 -48q15 -7 47 -9v-7h-236z" />
    <glyph glyph-name="i" unicode="i" horiz-adv-x="286" 
d="M33 0v7q24 1 44 7q27 9 27 45v316q-4 37 -27 53q-16 11 -59 13v6l173 11l4 -4v-390q0 -36 27 -48q15 -7 47 -9v-7h-236zM141 593q-25 0 -43 18t-18 43q0 26 18 44.5t43 18.5q27 0 45 -17.5t18 -41.5q0 -27 -18 -46t-45 -19z" />
    <glyph glyph-name="j" unicode="j" horiz-adv-x="291" 
d="M16 -226q-48 0 -73 20t-25 52q0 18 15 34t38 16q22 0 38 -11.5t16 -34.5q0 -9 -5.5 -32.5t-5.5 -30.5q6 -2 22 -2q45 0 63.5 48.5t18.5 165.5v376q-4 37 -27 53q-14 9 -82 13v6l196 11l4 -4v-413q0 -139 -63 -205q-59 -62 -130 -62zM153 593q-25 0 -43 18t-18 43
q0 26 18 44.5t43 18.5q27 0 45 -17.5t18 -41.5q0 -27 -18 -46t-45 -19z" />
    <glyph glyph-name="k" unicode="k" horiz-adv-x="534" 
d="M23 0v7q24 1 44 7q27 9 27 45v604q-4 37 -27 53q-15 10 -67 13v6l181 11l4 -4v-517q135 126 177 171q13 13 13 22q0 18 -80 27v7h201v-6q-70 -14 -133 -70q-27 -23 -85 -81q85 -39 146 -147q14 -24 52 -103q11 -22 31 -30q22 -9 39 -9v-6h-159q-22 72 -71 150t-93 78
q-21 0 -38 -15v-149q0 -36 27 -48q15 -7 47 -9v-7h-236z" />
    <glyph glyph-name="l" unicode="l" horiz-adv-x="279" 
d="M24 0v7q24 1 44 7q27 9 27 45v604q-4 37 -27 53q-15 10 -69 13v6l183 11l4 -4v-678q0 -36 27 -48q16 -7 44 -9v-7h-233z" />
    <glyph glyph-name="m" unicode="m" horiz-adv-x="874" 
d="M32 0v7q24 1 44 7q27 9 27 45v316q-4 37 -27 53q-17 11 -49 13v6l163 11l4 -4v-71h2l14 14t16 15.5l15 13t18 13.5l19 10t23.5 9t25 4.5t30.5 2.5q91 0 129 -86h2q70 86 164 86q67 0 99.5 -44t32.5 -116v-243q0 -35 26 -47q15 -6 44 -8v-7h-232v7q23 1 43 7q27 9 27 45
v258q0 51 -23.5 80t-61.5 29q-44 0 -74.5 -20t-43.5 -42v-302q0 -34 26 -46q18 -8 44 -9v-7h-230v7q22 1 42 7q27 9 27 45v265q0 49 -23.5 75.5t-58.5 26.5q-47 0 -79 -22t-43 -44v-296q0 -36 27 -48q16 -7 45 -9v-7h-234z" />
    <glyph glyph-name="n" unicode="n" horiz-adv-x="584" 
d="M32 0v7q24 1 44 7q27 9 27 45v316q-4 37 -27 53q-17 11 -49 13v6l163 11l4 -4v-71h2l12 12t14 13.5t13.5 12t16 12.5t16 10t19 9.5l20.5 6t24.5 5t26.5 1.5q68 0 102 -42t34 -116v-244q0 -36 26 -48q15 -6 44 -8v-7h-236v7q28 2 47 7q27 9 27 45v260q0 49 -24.5 78
t-58.5 29q-49 0 -81.5 -21.5t-43.5 -44.5v-296q0 -36 27 -48q15 -7 47 -9v-7h-236z" />
    <glyph glyph-name="o" unicode="o" horiz-adv-x="523" 
d="M257 -14q-94 0 -160 65.5t-66 172.5t64 174t169 67q103 0 165.5 -66t62.5 -168q0 -104 -63 -174.5t-172 -70.5zM263 -4q64 0 96 65t32 169q0 97 -30.5 161t-97.5 64q-37 0 -64 -19.5t-41 -53t-20 -70.5t-6 -80q0 -105 32 -170.5t99 -65.5z" />
    <glyph glyph-name="p" unicode="p" horiz-adv-x="566" 
d="M13 -226v7q29 2 55 9q26 8 26 47v540q-3 34 -26 50q-18 12 -55 14v6l167 11l4 -5v-52l4 -1q60 65 135 65q88 0 148 -67.5t60 -175.5q0 -100 -68 -167t-159 -67q-73 0 -115 31h-4v-176q0 -36 28 -47q32 -13 69 -15v-7h-269zM296 -3q64 0 98.5 61t34.5 165q0 90 -34.5 149
t-105.5 59q-64 0 -104 -47v-308q10 -30 38.5 -54.5t72.5 -24.5z" />
    <glyph glyph-name="q" unicode="q" horiz-adv-x="551" 
d="M298 -226v7q30 2 56 9q27 8 27 47v208l-3 1q-55 -58 -133 -58q-90 0 -151.5 67.5t-61.5 176.5q0 100 69 166.5t161 66.5q19 0 37.5 -3t32 -6.5t28.5 -10t22 -10t18.5 -10t12.5 -7.5l61 58l6 -1q-8 -160 -8 -175v-462q0 -35 27 -47q11 -5 59 -10v-7h-260zM279 17
q59 0 102 46v307q-11 33 -39 58.5t-74 25.5q-62 0 -98 -64.5t-36 -168.5q0 -85 35 -144.5t110 -59.5z" />
    <glyph glyph-name="r" unicode="r" horiz-adv-x="395" 
d="M32 0v7q24 1 44 7q27 9 27 45v316q-4 37 -27 53q-17 11 -49 13v6l163 11l4 -4v-71h2q63 80 135 80q27 0 45 -18t18 -43q0 -28 -14 -45.5t-39 -17.5t-39.5 13.5t-14.5 38.5q0 13 11 40q-31 0 -61.5 -23.5t-42.5 -44.5v-302q0 -35 27 -45q16 -6 65 -9v-7h-254z" />
    <glyph glyph-name="s" unicode="s" horiz-adv-x="401" 
d="M199 -14q-43 0 -81.5 14t-53.5 29l-17 -34h-10l-5 155h8q15 -47 62.5 -100.5t101.5 -53.5q49 0 74.5 27t25.5 67q0 39 -25.5 60t-97.5 42q-136 40 -136 142q0 57 41 94t109 37q77 0 117 -27l17 28h9l7 -138h-8q-19 50 -56 88.5t-86 38.5q-42 0 -64 -25.5t-22 -57.5
q0 -39 25 -56.5t97 -40.5q67 -22 101.5 -55t34.5 -91q0 -65 -48 -104t-120 -39z" />
    <glyph glyph-name="t" unicode="t" horiz-adv-x="345" 
d="M216 -10q-121 0 -121 138v308h-96v16h98v153h87v-153h137v-16h-136v-296q0 -101 77 -101q31 0 49.5 25.5t23.5 59.5h10q-6 -57 -41 -95.5t-88 -38.5z" />
    <glyph glyph-name="u" unicode="u" horiz-adv-x="567" 
d="M220 -12q-67 0 -98.5 44t-31.5 119v223q-3 34 -26 50q-22 14 -50 16v6l161 12l7 -7v-328q0 -50 22.5 -76.5t56.5 -26.5q79 0 121 68v289q-3 34 -26 50q-17 11 -65 13v6l175 12l7 -7v-375q3 -36 23 -49q15 -10 51 -12v-6l-157 -11l-7 7v61h-3q-28 -28 -41 -39.5t-46 -25
t-73 -13.5z" />
    <glyph glyph-name="v" unicode="v" horiz-adv-x="467" 
d="M235 -7l-179 403q-10 23 -25 35t-44 14v7h222v-9q-62 -2 -62 -21q0 -4 7 -21q95 -222 126 -289q96 223 114 270q7 15 5 28q-2 27 -79 36v6h167v-5q-49 -8 -71 -56q-52 -112 -127 -290q-25 -61 -39 -108h-15z" />
    <glyph glyph-name="w" unicode="w" horiz-adv-x="714" 
d="M223 -7l-163 402q-18 44 -68 50v7h216v-9q-58 -3 -58 -21q0 -4 7 -21q93 -238 115 -289l89 220q-17 42 -30 70q-17 38 -61 43v7h207v-8q-57 -2 -57 -20q0 -6 7 -23q82 -219 111 -290q90 234 104 275q5 15 5 26q0 16 -28.5 25t-47.5 9v6h167v-6q-23 -2 -46 -19t-32 -41
l-113 -287q-21 -52 -38 -106h-18l-123 324q-13 -29 -87 -218q-25 -67 -38 -106h-20z" />
    <glyph glyph-name="x" unicode="x" horiz-adv-x="471" 
d="M0 0v5q29 8 46 21t39 41q3 3 47.5 56.5t68.5 85.5l-129 191q-18 27 -32.5 36t-32.5 9v7h206v-7q-55 0 -55 -14q0 -6 9 -22l94 -142q85 114 97 132q7 10 6 18q-2 14 -66 29v6h161v-5q-24 -6 -41 -15.5t-24.5 -17t-21.5 -24.5q-29 -34 -104 -133l134 -198q11 -18 18 -26.5
t20.5 -16.5t30.5 -8v-8h-217v8q62 5 62 21q0 7 -14 30q-7 11 -41.5 61l-52.5 78q-71 -85 -108 -137q-10 -15 -10 -23q0 -24 72 -31v-7h-162z" />
    <glyph glyph-name="y" unicode="y" horiz-adv-x="462" 
d="M62 -226q-26 0 -50 17t-24 51q0 21 16 39.5t41 18.5q23 0 39.5 -13t16.5 -41l-8 -54q32 3 67.5 52.5t55.5 97.5l19 48q-30 73 -180 406q-9 22 -24 33.5t-44 15.5v7h219v-9q-60 -3 -60 -21q0 -4 7 -21q10 -27 32 -76l53 -116.5l46 -99.5l109 273q6 16 6 28q0 25 -76 36v6
h160v-5q-47 -8 -69 -56q-35 -78 -167 -406q-36 -90 -69 -138t-57.5 -60.5t-58.5 -12.5z" />
    <glyph glyph-name="z" unicode="z" horiz-adv-x="437" 
d="M24 0v9l284 432h-83q-82 0 -101 -8q-26 -11 -74 -111h-8v130h367v-9l-282 -432q33 -1 90 -1q37 0 91 3q28 1 56 54q35 70 41 84h8v-151h-389z" />
    <glyph glyph-name="braceleft" unicode="{" horiz-adv-x="414" 
d="M387 -169q-113 0 -164 34.5t-51 136.5q0 20 8 64t8 65q0 73 -38 98.5t-119 31.5v53q82 7 119.5 32t37.5 98q0 21 -8 65t-8 64q0 102 51 136.5t164 34.5v-7q-26 -1 -44 -6t-38 -17.5t-30.5 -40t-10.5 -68.5q0 -20 4.5 -58t4.5 -58q0 -41 -10 -71t-25 -47.5t-41 -30
t-48 -18t-56 -10.5v-49q34 -5 55.5 -10.5t47.5 -18t41 -30t25.5 -47.5t10.5 -71q0 -20 -4.5 -58t-4.5 -58q0 -41 10.5 -68.5t30.5 -40t38 -17.5t44 -6v-7z" />
    <glyph glyph-name="bar" unicode="|" horiz-adv-x="273" 
d="M122 -207v953h30v-953h-30z" />
    <glyph glyph-name="braceright" unicode="}" horiz-adv-x="414" 
d="M27 -169v7q26 1 44 6t38 17.5t30.5 40t10.5 68.5q0 20 -4.5 58t-4.5 58q0 41 10.5 71t25.5 47.5t41 30t47.5 18t55.5 10.5v49q-34 5 -56 10.5t-48 18t-41 30t-25 47.5t-10 71q0 20 4.5 58t4.5 58q0 41 -10.5 68.5t-30.5 40t-38.5 17.5t-43.5 6v7q113 0 164 -34.5
t51 -136.5q0 -20 -8 -64t-8 -65q0 -73 37.5 -98t119.5 -32v-53q-81 -6 -119 -31.5t-38 -98.5q0 -21 8 -65t8 -64q0 -102 -51 -136.5t-164 -34.5z" />
    <glyph glyph-name="asciitilde" unicode="~" horiz-adv-x="524" 
d="M58 192l-6 2q14 50 52 87.5t86 37.5q40 0 96 -22.5t79 -22.5q68 0 102 64l5 -2q-15 -53 -49 -90.5t-80 -37.5q-44 0 -98.5 22.5t-76.5 22.5q-77 0 -110 -61z" />
    <glyph glyph-name="nbspace" unicode="&#xa0;" horiz-adv-x="118" 
 />
    <glyph glyph-name="exclamdown" unicode="&#xa1;" horiz-adv-x="322" 
d="M164 480q8 -97 32.5 -250t24.5 -172q0 -28 -17 -48t-44 -20t-44 20t-17 48q0 19 11 86l26 164t22 172h6zM161 700q27 0 46 -18.5t19 -46.5q0 -27 -19 -46.5t-46 -19.5q-28 0 -47 19.5t-19 46.5q0 28 19 46.5t47 18.5z" />
    <glyph glyph-name="cent" unicode="&#xa2;" horiz-adv-x="468" 
d="M157 -113l-13 3l43 184q-66 22 -102 82.5t-36 146.5q0 97 61 167t159 70q11 0 27 -2l31 132l14 -3l-30 -131q51 -9 80.5 -40.5t29.5 -70.5q0 -56 -50 -56q-19 0 -35 12t-16 37t8.5 46.5t8.5 27.5q-5 22 -29 34l-95 -401q31 -26 72 -26q51 0 85 18.5t64 66.5l7 -4
q-27 -57 -74 -87t-106 -30q-29 0 -60 7zM202 137l93 393q-8 2 -24 2q-53 0 -89.5 -57.5t-36.5 -163.5q0 -117 57 -174z" />
    <glyph glyph-name="sterling" unicode="&#xa3;" horiz-adv-x="730" 
d="M65 -98q-59 0 -88 24.5t-29 63.5q0 45 52 73t124 28q47 0 139 -23q7 36 3 119h-169v12h169q-4 62 -4 93h-159v13h159q4 178 81.5 285.5t199.5 107.5q93 0 143.5 -52.5t50.5 -116.5q0 -72 -44.5 -116.5t-114.5 -44.5q-53 0 -83.5 34.5t-30.5 88.5q0 37 18 80l6 -2
q-16 -38 -16 -72q0 -48 29 -76.5t74 -28.5q49 0 74 35t25 97q0 72 -32 119.5t-95 47.5q-167 0 -175 -301q-2 -62 -5 -85h161v-13h-162q-8 -59 -20 -93h174v-12h-178q-29 -91 -54 -128q25 -9 75 -30.5t88 -33.5t75 -12t63.5 13.5t41.5 39t22 48t12 53.5l7 -2
q-28 -216 -232 -216q-13 0 -27 2t-29.5 7l-26.5 8.5t-30 12t-27 12.5l-29.5 14.5l-27.5 13.5q-30 -37 -79.5 -62t-98.5 -25zM64 -88q46 0 91 22.5t77 59.5q-102 48 -183 48q-39 0 -62.5 -17t-23.5 -46q0 -27 26 -47t75 -20z" />
    <glyph glyph-name="currency" unicode="&#xa4;" horiz-adv-x="571" 
d="M344 -14q-101 0 -165 66t-76 189h-74v13h73q-2 51 1 86h-74v13h76q15 115 86 191t181 76q78 0 124.5 -35.5t46.5 -85.5q0 -35 -14.5 -53t-34.5 -18q-23 0 -36 14.5t-13 35.5q0 16 13 38.5t13 37.5q-4 25 -32.5 41t-69.5 16q-69 0 -111 -69t-50 -189h227v-13h-228
q-1 -33 1 -86h191v-13h-190q6 -97 48.5 -158.5t118.5 -61.5q110 0 169 126l8 -4q-33 -74 -81.5 -115.5t-127.5 -41.5z" />
    <glyph glyph-name="yen" unicode="&#xa5;" horiz-adv-x="567" 
d="M123 0v7q58 3 77 10q14 5 22.5 18t8.5 29v93h-155v13h155v82h-155v13h154q-93 189 -133 257q-24 46 -56 64q-20 12 -52 14v7h273v-7q-83 -6 -83 -27q0 -24 145 -285l42.5 72l43 72.5l34 58.5t26 48.5t8.5 22.5q0 31 -97 38v7h200v-7q-21 -2 -42.5 -15t-34.5 -31
q-72 -103 -177 -289h161v-13h-162v-82h162v-13h-162v-88q0 -35 29 -48q24 -11 73 -14v-7h-305z" />
    <glyph glyph-name="brokenbar" unicode="&#xa6;" horiz-adv-x="273" 
d="M122 -207v392h30v-392h-30zM122 363v383h30v-383h-30z" />
    <glyph glyph-name="section" unicode="&#xa7;" horiz-adv-x="526" 
d="M229 -227q-56 0 -90 36t-34 70t16 53.5t44 19.5q20 0 34.5 -14.5t14.5 -37.5q0 -20 -18 -39t-18 -31q0 -21 16.5 -35.5t40.5 -14.5q40 0 64 33t24 85q0 33 -14 61t-47 69q-21 27 -63 72.5t-68 76.5q-40 47 -57 81t-17 76q0 55 39 89.5t92 42.5q-41 59 -41 124
q0 59 46.5 103.5t111.5 44.5q54 0 85 -35t31 -70q0 -34 -15.5 -53.5t-43.5 -19.5q-20 0 -34.5 14t-14.5 38q0 22 24 40t24 28q0 21 -17.5 36t-48.5 15q-37 0 -63.5 -31.5t-26.5 -79.5q0 -33 14 -59t49 -72q23 -29 65.5 -77.5l62.5 -71.5q42 -49 59.5 -83t17.5 -76
q0 -56 -38 -86.5t-96 -40.5q45 -63 45 -132q0 -59 -45.5 -104t-109.5 -45zM334 61q77 20 77 92q0 45 -47 101l-62 72.5l-66 77.5t-44 56q-77 -19 -77 -97q0 -42 50 -102l82.5 -95.5t86.5 -104.5z" />
    <glyph glyph-name="dieresis" unicode="&#xa8;" 
d="M140 588q-23 0 -40 17t-17 40q0 24 17 41.5t40 17.5q26 0 43 -16.5t17 -38.5q0 -25 -17.5 -43t-42.5 -18zM358 588q-24 0 -41 17t-17 40q0 24 17 41.5t41 17.5q25 0 42 -16.5t17 -38.5q0 -25 -17 -43t-42 -18z" />
    <glyph glyph-name="copyright" unicode="&#xa9;" horiz-adv-x="950" 
d="M482 13q-109 0 -174 63.5t-65 170.5q0 104 71.5 173.5t181.5 69.5q78 0 126 -34l24 41h8l4 -181h-8l-17 46t-20.5 42.5t-28.5 39t-39 25t-52 10.5q-64 0 -108 -61t-44 -166q0 -93 42.5 -151.5t118.5 -58.5q102 0 159 116l12 -5q-63 -140 -191 -140zM476 -181
q-181 0 -309 126.5t-128 305.5q0 116 58 215t159 157t220 58q180 0 307.5 -126.5t127.5 -303.5q0 -117 -58 -216.5t-158.5 -157.5t-218.5 -58zM476 -155q167 0 283.5 118.5t116.5 287.5q0 167 -116.5 285t-283.5 118q-168 0 -285 -118t-117 -285q0 -169 117 -287.5
t285 -118.5z" />
    <glyph glyph-name="ordfeminine" unicode="&#xaa;" horiz-adv-x="348" 
d="M121 336q-33 0 -52.5 17.5t-19.5 47.5q0 32 15.5 49t42.5 28q14 6 51 16.5t49 16.5v35q0 65 -47 65q-22 0 -34 -15q0 -4 3 -21t3 -25q0 -11 -8.5 -20t-25.5 -9q-33 0 -33 35q0 26 31.5 45t66.5 19q50 0 78 -17t28 -71q0 -30 -2 -78.5t-2 -53.5q0 -10 6 -20.5t20 -10.5
q24 0 26 50h8q-4 -82 -63 -82q-39 0 -53 41q-37 -42 -88 -42zM155 362q30 0 49 24l3 115q-44 -16 -68 -36t-24 -53q0 -23 11.5 -36.5t28.5 -13.5zM54 242v19h254v-19h-254z" />
    <glyph glyph-name="guillemotleft" unicode="&#xab;" horiz-adv-x="549" 
d="M277 20l-210 164q-14 11 -18.5 18.5t-4.5 21.5q0 21 21 38l56.5 43l89 68.5t66.5 53.5l4 -4l-148 -201l148 -198zM488 20l-210 164q-14 11 -18.5 18.5t-4.5 21.5q0 21 21 38q181 138 212 165l4 -4l-148 -201l148 -198z" />
    <glyph glyph-name="logicalnot" unicode="&#xac;" horiz-adv-x="559" 
d="M460 39v216h-418v34h453v-250h-35z" />
    <glyph glyph-name="registered" unicode="&#xae;" horiz-adv-x="474" 
d="M313 423q-37 0 -43 51q-2 15 -5 24t-13 18t-26 9h-17v-75q0 -11 9 -15q6 -3 20 -3v-6h-94v6q14 0 20 3q9 5 9 15v156q0 12 -9 15q-12 4 -20 4v6h105q26 0 46 -11.5t20 -34.5q0 -36 -58 -52v-3q39 -6 46 -32q2 -7 5 -22t5 -23q4 -13 14 -13q17 0 17 25h6q0 -42 -37 -42z
M237 339q-77 0 -129.5 52.5t-52.5 129.5t52.5 129.5t129.5 52.5t129.5 -52.5t52.5 -129.5t-52.5 -129.5t-129.5 -52.5zM237 355q69 0 115.5 48t46.5 118t-46.5 118t-115.5 48t-115.5 -48t-46.5 -118t46.5 -118t115.5 -48zM209 532h16q49 0 49 47q0 45 -41 45h-24v-92z" />
    <glyph glyph-name="macron" unicode="&#xaf;" 
d="M85 596v62h330v-62h-330z" />
    <glyph glyph-name="macron" unicode="&#x304;" 
d="M85 596v62h330v-62h-330z" />
    <glyph glyph-name="degree" unicode="&#xb0;" horiz-adv-x="382" 
d="M189 414q-63 0 -105 38.5t-42 106.5q0 64 44.5 107.5t102.5 43.5q64 0 107.5 -38.5t43.5 -111.5q0 -61 -45.5 -103.5t-105.5 -42.5zM192 422q36 0 60 40t24 96q0 62 -22 103t-64 41q-41 0 -63 -41.5t-22 -97.5q0 -59 22 -100t65 -41z" />
    <glyph glyph-name="twosuperior" unicode="&#xb2;" horiz-adv-x="458" 
d="M72 337v27q7 5 34.5 22t34 21.5l26.5 17.5t27.5 18.5l21.5 16t24 19t20 18.5q42 41 57 75.5t15 79.5q0 39 -22 62t-61 23q-53 0 -89 -37.5t-36 -78.5q0 -50 51 -50q49 0 82 56l6 -5q-50 -83 -127 -83q-31 0 -49 17t-18 48q0 50 56.5 96t132.5 46q69 0 112 -30.5t43 -77.5
q0 -62 -48 -106t-166 -97q-16 -8 -56 -38h213q7 0 13.5 2t13.5 7t11 8.5t11 13l10 13.5t11 16.5l10 15.5l5 -3l-62 -133h-307z" />
    <glyph glyph-name="threesuperior" unicode="&#xb3;" horiz-adv-x="454" 
d="M188 332q-54 0 -97 24.5t-43 67.5q0 25 17 42t40 17q17 0 27.5 -10t10.5 -28q0 -15 -10 -24t-20.5 -15.5t-10.5 -15.5q0 -20 23 -35t62 -15q55 0 96 42t41 95q0 81 -59 81q-24 0 -80 -47l-10 15q89 47 113 69q32 30 32 69q0 33 -19.5 53t-52.5 20q-31 0 -67 -26t-36 -61
q0 -41 41 -41q23 0 56 27l3 -4q-15 -19 -40.5 -34t-51.5 -15q-67 0 -67 52q0 41 57 76t126 35q66 0 97 -25.5t31 -58.5q0 -29 -33 -55t-97 -40q60 2 99 -19.5t39 -69.5q0 -64 -63 -105t-154 -41z" />
    <glyph glyph-name="acute" unicode="&#xb4;" 
d="M156 524l-5 5q21 36 49 88.5t39 70.5q25 43 61 43q17 0 28.5 -11.5t11.5 -26.5q0 -17 -8 -28t-28 -27z" />
    <glyph glyph-name="mu" unicode="&#xb5;" horiz-adv-x="571" 
d="M99 -226q-17 0 -29.5 14t-12.5 36q0 30 10.5 79t11.5 54q5 40 5 106v392h91v-319q0 -49 27 -78t66 -29q74 0 108 57v369h91v-362q0 -20 13.5 -36t36.5 -16q25 0 38 22.5t16 55.5h8q-4 -69 -28.5 -98.5t-73.5 -29.5q-74 0 -99 77h-3q-63 -78 -144 -78q-84 0 -131 71h-2
v-64q0 -33 21.5 -89.5t21.5 -80.5q0 -25 -12.5 -39t-29.5 -14z" />
    <glyph glyph-name="mu" unicode="&#x3bc;" horiz-adv-x="571" 
d="M99 -226q-17 0 -29.5 14t-12.5 36q0 30 10.5 79t11.5 54q5 40 5 106v392h91v-319q0 -49 27 -78t66 -29q74 0 108 57v369h91v-362q0 -20 13.5 -36t36.5 -16q25 0 38 22.5t16 55.5h8q-4 -69 -28.5 -98.5t-73.5 -29.5q-74 0 -99 77h-3q-63 -78 -144 -78q-84 0 -131 71h-2
v-64q0 -33 21.5 -89.5t21.5 -80.5q0 -25 -12.5 -39t-29.5 -14z" />
    <glyph glyph-name="paragraph" unicode="&#xb6;" horiz-adv-x="609" 
d="M312 -125v461h-30q-121 0 -172 49.5t-51 120.5q0 30 10 59t31 56.5t60 44.5t91 17h342v-14h-142v-794h-17v794h-105v-794h-17z" />
    <glyph glyph-name="periodcentered" unicode="&#xb7;" horiz-adv-x="250" 
d="M125 206q-28 0 -47.5 19t-19.5 47t19.5 47.5t47.5 19.5t47.5 -19.5t19.5 -47.5t-19.5 -47t-47.5 -19z" />
    <glyph glyph-name="periodcentered" unicode="&#x2219;" horiz-adv-x="250" 
d="M125 206q-28 0 -47.5 19t-19.5 47t19.5 47.5t47.5 19.5t47.5 -19.5t19.5 -47.5t-19.5 -47t-47.5 -19z" />
    <glyph glyph-name="cedilla" unicode="&#xb8;" 
d="M141 -230v12q138 0 138 63q0 40 -85 40v115h13v-58q142 0 142 -76q0 -31 -17 -51.5t-49.5 -29.5t-64.5 -12t-77 -3z" />
    <glyph glyph-name="onesuperior" unicode="&#xb9;" horiz-adv-x="340" 
d="M44 339v7q57 4 70 7q24 7 24 32v318q-13 -3 -31 -3q-47 0 -89 32l2 4q43 -16 78 -16q63 0 121 29h5q-9 -37 -9 -102v-260q0 -22 23 -31q17 -6 67 -10v-7h-261z" />
    <glyph glyph-name="ordmasculine" unicode="&#xba;" horiz-adv-x="362" 
d="M179 333q-55 0 -96 39t-41 104q0 64 40 104t100 40t99 -39.5t39 -101.5q0 -63 -39.5 -104.5t-101.5 -41.5zM182 341q36 0 52 40t16 98q0 54 -16 93t-52 39q-26 0 -42.5 -22.5t-22 -50t-5.5 -58.5q0 -58 16.5 -98.5t53.5 -40.5zM54 242v19h254v-19h-254z" />
    <glyph glyph-name="guillemotright" unicode="&#xbb;" horiz-adv-x="549" 
d="M61 20l-4 4l148 198l-148 201l4 4q23 -20 66.5 -53.5l89.5 -68.5l56 -43q21 -17 21 -38q0 -14 -4.5 -21.5t-18.5 -18.5zM272 20l-3 4l147 198l-147 201l3 4q23 -20 66.5 -53.5l89 -68.5l56.5 -43q21 -17 21 -38q0 -14 -4.5 -21.5t-18.5 -18.5z" />
    <glyph glyph-name="onequarter" unicode="&#xbc;" horiz-adv-x="563" 
d="M226 -227v7q42 3 50 6q21 6 21 30v91h-212v21l258 256h26v-247q72 0 85 9q20 15 20 49h7v-149h-7q-2 38 -22 54q-9 7 -83 7v-87q0 -24 20 -31q17 -7 50 -9v-7h-213zM155 339v7q57 4 70 7q24 7 24 32v318q-14 -3 -31 -3q-47 0 -89 32l2 4q43 -16 78 -16q63 0 121 29h5
q-9 -37 -9 -102v-260q0 -22 23 -31q17 -6 67 -10v-7h-261zM44 246v25h474v-25h-474zM111 -63h186v185z" />
    <glyph glyph-name="onehalf" unicode="&#xbd;" horiz-adv-x="563" 
d="M119 -227v27q7 5 34.5 22t34 21.5l26.5 17.5t27.5 18.5l21.5 16t24 19t20 18.5q42 41 57 75.5t15 79.5q0 39 -22 62t-61 23q-53 0 -89 -37.5t-36 -78.5q0 -50 51 -50q49 0 82 56l6 -5q-50 -83 -127 -83q-31 0 -49 17t-18 48q0 50 56.5 96t132.5 46q69 0 112 -30.5
t43 -77.5q0 -63 -47 -106.5t-164 -96.5q-25 -13 -59 -38h213q7 0 13.5 2t13.5 7t11 8.5t11 13l10 13.5t11 16.5l10 15.5l5 -3l-62 -133h-307zM155 339v7q57 4 70 7q24 7 24 32v318q-14 -3 -31 -3q-47 0 -89 32l2 4q43 -16 78 -16q63 0 121 29h5q-9 -37 -9 -102v-260
q0 -22 23 -31q17 -6 67 -10v-7h-261zM44 246v25h474v-25h-474z" />
    <glyph glyph-name="threequarters" unicode="&#xbe;" horiz-adv-x="563" 
d="M234 332q-54 0 -97 24.5t-43 67.5q0 25 17 42t40 17q17 0 27.5 -10t10.5 -28q0 -15 -10.5 -24t-20.5 -15.5t-10 -15.5q0 -20 23 -35t62 -15q55 0 96 42t41 95q0 81 -59 81q-24 0 -80 -47l-10 15q89 47 113 69q32 30 32 69q0 33 -19.5 53t-52.5 20q-31 0 -67 -26t-36 -61
q0 -41 41 -41q23 0 56 27l3 -4q-15 -19 -40.5 -34t-51.5 -15q-67 0 -67 52q0 41 57 76t126 35q66 0 97 -25.5t31 -58.5q0 -29 -33 -55t-97 -40q60 2 99 -19.5t39 -69.5q0 -64 -63 -105t-154 -41zM226 -227v7q42 3 50 6q21 6 21 30v91h-212v21l258 256h26v-247q72 0 85 9
q20 15 20 49h7v-149h-7q-2 38 -22 54q-9 7 -83 7v-87q0 -24 20 -31q17 -7 50 -9v-7h-213zM44 246v25h474v-25h-474zM111 -63h186v185z" />
    <glyph glyph-name="questiondown" unicode="&#xbf;" horiz-adv-x="482" 
d="M312 510v-186q-81 -11 -120.5 -44t-39.5 -107q0 -89 33 -130t87 -41q20 0 41 8t30 19q0 2 -6.5 23.5t-6.5 45.5t19 38t37 14q25 0 38 -16t13 -41q0 -40 -46 -71t-121 -31q-102 0 -157 55.5t-55 144.5q0 86 65 144.5t173 67.5l6 107h10zM305 702q28 0 47.5 -19t19.5 -47
t-19.5 -47.5t-47.5 -19.5t-47.5 19.5t-19.5 47.5t19.5 47t47.5 19z" />
    <glyph glyph-name="Agrave" unicode="&#xc0;" horiz-adv-x="680" 
d="M-24 0v7q36 2 63 17q30 18 57 80l237 590h18l252 -620q15 -38 41 -53q21 -12 61 -14v-7h-315v7q100 6 106 34q2 11 -4 28l-71 183h-248q-28 -68 -50 -141q-14 -44 -14 -60q0 -37 122 -44v-7h-255zM178 266h237l-119 301zM414 724l-149 114q-20 16 -28 27t-8 28
q0 15 12 26.5t29 11.5q36 0 61 -43q10 -16 38.5 -70t49.5 -90z" />
    <glyph glyph-name="Aacute" unicode="&#xc1;" horiz-adv-x="680" 
d="M-24 0v7q36 2 63 17q30 18 57 80l237 590h18l252 -620q15 -38 41 -53q21 -12 61 -14v-7h-315v7q100 6 106 34q2 11 -4 28l-71 183h-248q-28 -68 -50 -141q-14 -44 -14 -60q0 -37 122 -44v-7h-255zM178 266h237l-119 301zM250 724l-5 5q21 36 49 88.5t39 70.5q25 43 61 43
q17 0 28.5 -11.5t11.5 -26.5q0 -17 -8 -28t-28 -27z" />
    <glyph glyph-name="Acircumflex" unicode="&#xc2;" horiz-adv-x="680" 
d="M-24 0v7q36 2 63 17q30 18 57 80l237 590h18l252 -620q15 -38 41 -53q21 -12 61 -14v-7h-315v7q100 6 106 34q2 11 -4 28l-71 183h-248q-28 -68 -50 -141q-14 -44 -14 -60q0 -37 122 -44v-7h-255zM178 266h237l-119 301zM190 734l-7 6l114 171q10 15 16.5 18.5t27.5 3.5
t26.5 -3t14.5 -17l115 -173l-7 -6l-151 128z" />
    <glyph glyph-name="Atilde" unicode="&#xc3;" horiz-adv-x="680" 
d="M-24 0v7q36 2 63 17q30 18 57 80l237 590h18l252 -620q15 -38 41 -53q21 -12 61 -14v-7h-315v7q100 6 106 34q2 11 -4 28l-71 183h-248q-28 -68 -50 -141q-14 -44 -14 -60q0 -37 122 -44v-7h-255zM178 266h237l-119 301zM154 755l-9 4q16 45 49 85t76 40q42 0 92.5 -29
t71.5 -29q59 0 91 67l9 -3q-12 -43 -48 -84t-80 -41t-92.5 28t-73.5 28q-27 0 -46.5 -15.5t-39.5 -50.5z" />
    <glyph glyph-name="Adieresis" unicode="&#xc4;" horiz-adv-x="680" 
d="M-24 0v7q36 2 63 17q30 18 57 80l237 590h18l252 -620q15 -38 41 -53q21 -12 61 -14v-7h-315v7q100 6 106 34q2 11 -4 28l-71 183h-248q-28 -68 -50 -141q-14 -44 -14 -60q0 -37 122 -44v-7h-255zM178 266h237l-119 301zM230 763q-23 0 -40 17t-17 40q0 24 17 41.5
t40 17.5q26 0 43 -16.5t17 -38.5q0 -25 -17.5 -43t-42.5 -18zM448 763q-24 0 -41 17t-17 40q0 24 17 41.5t41 17.5q25 0 42 -16.5t17 -38.5q0 -25 -17 -43t-42 -18z" />
    <glyph glyph-name="Aring" unicode="&#xc5;" horiz-adv-x="680" 
d="M-24 0v7q36 2 63 17q30 18 57 80l237 590h18l252 -620q15 -38 41 -53q21 -12 61 -14v-7h-315v7q100 6 106 34q2 11 -4 28l-71 183h-248q-28 -68 -50 -141q-14 -44 -14 -60q0 -37 122 -44v-7h-255zM178 266h237l-119 301zM340 731q-51 0 -81.5 27t-30.5 71q0 43 32.5 70.5
t79.5 27.5q49 0 80.5 -27t31.5 -71q0 -43 -31 -70.5t-81 -27.5zM340 740q30 0 45 26t15 63q0 36 -15 62.5t-45 26.5t-45 -25.5t-15 -63.5q0 -37 15 -63t45 -26z" />
    <glyph glyph-name="AE" unicode="&#xc6;" horiz-adv-x="983" 
d="M-28 0v7q41 2 70 19q34 19 77 91q26 41 146.5 250l169.5 298q-14 5 -101 10v8h572v-155h-9q-9 37 -45.5 86.5t-66.5 53.5q-32 4 -101 4h-113v-312h100q26 0 45 6.5t24 11t15 14.5q11 11 22.5 44t13.5 55h9v-279h-9q-1 21 -14 57.5t-22 46.5q-30 32 -84 32h-100v-245
q0 -60 21 -75.5t98 -15.5q118 0 148 10q15 5 22 13q21 21 51.5 76t39.5 81h9l-13 -192h-592v7q52 3 77 11q33 12 33 49v214h-233q-74 -130 -91 -164q-19 -35 -19 -62q0 -42 119 -47v-8h-269zM240 295h225v369h-14q-26 -42 -211 -369z" />
    <glyph glyph-name="Ccedilla" unicode="&#xc7;" horiz-adv-x="653" 
d="M368 -15q-5 0 -13 0.5t-12 0.5v-44q142 0 142 -76q0 -31 -17 -51.5t-49.5 -29.5t-64.5 -12t-77 -3v12q138 0 138 63q0 40 -85 40v102q-133 12 -213 105.5t-80 240.5q0 155 100.5 259t251.5 104q114 0 175 -57l38 54h9l4 -247h-9q-31 100 -92 168t-150 68
q-95 0 -151 -87.5t-56 -253.5q0 -139 65 -229t175 -90q163 0 233 157l11 -6q-83 -188 -273 -188z" />
    <glyph glyph-name="Egrave" unicode="&#xc8;" horiz-adv-x="666" 
d="M38 0v7q57 3 79 12q31 12 31 49v541q0 40 -31 52q-29 12 -79 15v7h551v-155h-9q-9 37 -45.5 86.5t-66.5 53.5q-32 4 -101 4h-113v-312h100q26 0 45 6.5t24 11t15 14.5q11 11 22.5 44t13.5 55h9v-279h-9q-1 21 -14 57.5t-22 46.5q-30 32 -84 32h-100v-245q0 -60 21 -75.5
t98 -15.5q118 0 148 10q15 5 22 13q21 21 51.5 76t39.5 81h9l-13 -192h-592zM423 724l-149 114q-20 16 -28 27t-8 28q0 15 12 26.5t29 11.5q36 0 61 -43q10 -16 38.5 -70t49.5 -90z" />
    <glyph glyph-name="Eacute" unicode="&#xc9;" horiz-adv-x="666" 
d="M38 0v7q57 3 79 12q31 12 31 49v541q0 40 -31 52q-29 12 -79 15v7h551v-155h-9q-9 37 -45.5 86.5t-66.5 53.5q-32 4 -101 4h-113v-312h100q26 0 45 6.5t24 11t15 14.5q11 11 22.5 44t13.5 55h9v-279h-9q-1 21 -14 57.5t-22 46.5q-30 32 -84 32h-100v-245q0 -60 21 -75.5
t98 -15.5q118 0 148 10q15 5 22 13q21 21 51.5 76t39.5 81h9l-13 -192h-592zM317 724l-5 5q21 36 49 88.5t39 70.5q25 43 61 43q17 0 28.5 -11.5t11.5 -26.5q0 -17 -8 -28t-28 -27z" />
    <glyph glyph-name="Ecircumflex" unicode="&#xca;" horiz-adv-x="666" 
d="M38 0v7q57 3 79 12q31 12 31 49v541q0 40 -31 52q-29 12 -79 15v7h551v-155h-9q-9 37 -45.5 86.5t-66.5 53.5q-32 4 -101 4h-113v-312h100q26 0 45 6.5t24 11t15 14.5q11 11 22.5 44t13.5 55h9v-279h-9q-1 21 -14 57.5t-22 46.5q-30 32 -84 32h-100v-245q0 -60 21 -75.5
t98 -15.5q118 0 148 10q15 5 22 13q21 21 51.5 76t39.5 81h9l-13 -192h-592zM183 734l-7 6l114 171q10 15 16.5 18.5t27.5 3.5t26.5 -3t14.5 -17l115 -173l-7 -6l-151 128z" />
    <glyph glyph-name="Edieresis" unicode="&#xcb;" horiz-adv-x="666" 
d="M38 0v7q57 3 79 12q31 12 31 49v541q0 40 -31 52q-29 12 -79 15v7h551v-155h-9q-9 37 -45.5 86.5t-66.5 53.5q-32 4 -101 4h-113v-312h100q26 0 45 6.5t24 11t15 14.5q11 11 22.5 44t13.5 55h9v-279h-9q-1 21 -14 57.5t-22 46.5q-30 32 -84 32h-100v-245q0 -60 21 -75.5
t98 -15.5q118 0 148 10q15 5 22 13q21 21 51.5 76t39.5 81h9l-13 -192h-592zM223 764q-23 0 -40 17t-17 40q0 24 17 41.5t40 17.5q26 0 43 -16.5t17 -38.5q0 -25 -17.5 -43t-42.5 -18zM441 764q-24 0 -41 17t-17 40q0 24 17 41.5t41 17.5q25 0 42 -16.5t17 -38.5
q0 -25 -17 -43t-42 -18z" />
    <glyph glyph-name="Igrave" unicode="&#xcc;" horiz-adv-x="406" 
d="M46 0v7q55 3 73 10q31 12 31 49v543q0 39 -31 52t-73 15v7h314v-7q-41 -2 -73 -13q-31 -10 -31 -49v-543q0 -39 31 -52q22 -9 73 -12v-7h-314zM278 724l-149 114q-20 16 -28 27t-8 28q0 15 12 26.5t29 11.5q36 0 61 -43q10 -16 38.5 -70t49.5 -90z" />
    <glyph glyph-name="Iacute" unicode="&#xcd;" horiz-adv-x="406" 
d="M46 0v7q55 3 73 10q31 12 31 49v543q0 39 -31 52t-73 15v7h314v-7q-41 -2 -73 -13q-31 -10 -31 -49v-543q0 -39 31 -52q22 -9 73 -12v-7h-314zM129 724l-5 5q21 36 49 88.5t39 70.5q25 43 61 43q17 0 28.5 -11.5t11.5 -26.5q0 -17 -8 -28t-28 -27z" />
    <glyph glyph-name="Icircumflex" unicode="&#xce;" horiz-adv-x="406" 
d="M46 0v7q55 3 73 10q31 12 31 49v543q0 39 -31 52t-73 15v7h314v-7q-41 -2 -73 -13q-31 -10 -31 -49v-543q0 -39 31 -52q22 -9 73 -12v-7h-314zM53 734l-7 6l114 171q10 15 16.5 18.5t27.5 3.5t26.5 -3t14.5 -17l115 -173l-7 -6l-151 128z" />
    <glyph glyph-name="Idieresis" unicode="&#xcf;" horiz-adv-x="406" 
d="M46 0v7q55 3 73 10q31 12 31 49v543q0 39 -31 52t-73 15v7h314v-7q-41 -2 -73 -13q-31 -10 -31 -49v-543q0 -39 31 -52q22 -9 73 -12v-7h-314zM93 764q-23 0 -40 17t-17 40q0 24 17 41.5t40 17.5q26 0 43 -16.5t17 -38.5q0 -25 -17.5 -43t-42.5 -18zM311 764
q-24 0 -41 17t-17 40q0 24 17 41.5t41 17.5q25 0 42 -16.5t17 -38.5q0 -25 -17 -43t-42 -18z" />
    <glyph glyph-name="Eth" unicode="&#xd0;" horiz-adv-x="779" 
d="M43 0v7q48 0 74 10q31 12 31 49v285h-100v21h100v237q0 41 -31 54q-25 11 -70 13v7h322q45 0 91.5 -9.5t98.5 -34t91.5 -62t65.5 -100t26 -140.5q0 -84 -34 -150.5t-90.5 -106t-125 -60t-143.5 -20.5h-306zM363 12q127 0 191.5 88.5t64.5 237.5q0 146 -76.5 240
t-201.5 94q-43 0 -87 -2v-298h147v-21h-147v-262q5 -39 29.5 -58t79.5 -19z" />
    <glyph glyph-name="Ntilde" unicode="&#xd1;" horiz-adv-x="776" 
d="M639 -7l-481 592v-409q0 -114 34 -139q14 -11 49.5 -20t53.5 -10v-7h-277v7q15 1 49 10t44 17q33 26 33 137v392q0 22 -11 48t-26 38q-31 24 -102 27v7h206l431 -529v348q0 122 -34 149q-27 22 -102 25v7h275v-7q-19 -1 -48 -7.5t-44 -16.5q-33 -23 -33 -150v-509h-17z
M229 755l-9 4q16 45 49 85t76 40q42 0 92.5 -29t71.5 -29q59 0 91 67l9 -3q-12 -43 -48 -84t-80 -41t-92.5 28t-73.5 28q-27 0 -46.5 -15.5t-39.5 -50.5z" />
    <glyph glyph-name="Ograve" unicode="&#xd2;" horiz-adv-x="775" 
d="M384 -16q-139 0 -239 94q-107 101 -107 256q0 164 97 261q102 104 253 104q147 0 254 -104q45 -45 70 -110.5t25 -138.5q0 -168 -104 -266q-101 -96 -249 -96zM388 -4q112 0 170 96t58 251q0 68 -12.5 127.5t-38.5 109t-71.5 78.5t-105.5 29q-107 0 -168 -92.5
t-61 -255.5q0 -97 24 -172.5t77 -123t128 -47.5zM477 724l-149 114q-20 16 -28 27t-8 28q0 15 12 26.5t29 11.5q36 0 61 -43q10 -16 38.5 -70t49.5 -90z" />
    <glyph glyph-name="Oacute" unicode="&#xd3;" horiz-adv-x="775" 
d="M384 -16q-139 0 -239 94q-107 101 -107 256q0 164 97 261q102 104 253 104q147 0 254 -104q45 -45 70 -110.5t25 -138.5q0 -168 -104 -266q-101 -96 -249 -96zM388 -4q112 0 170 96t58 251q0 68 -12.5 127.5t-38.5 109t-71.5 78.5t-105.5 29q-107 0 -168 -92.5
t-61 -255.5q0 -97 24 -172.5t77 -123t128 -47.5zM298 724l-5 5q21 36 49 88.5t39 70.5q25 43 61 43q17 0 28.5 -11.5t11.5 -26.5q0 -17 -8 -28t-28 -27z" />
    <glyph glyph-name="Ocircumflex" unicode="&#xd4;" horiz-adv-x="775" 
d="M384 -16q-139 0 -239 94q-107 101 -107 256q0 164 97 261q102 104 253 104q147 0 254 -104q45 -45 70 -110.5t25 -138.5q0 -168 -104 -266q-101 -96 -249 -96zM388 -4q112 0 170 96t58 251q0 68 -12.5 127.5t-38.5 109t-71.5 78.5t-105.5 29q-107 0 -168 -92.5
t-61 -255.5q0 -97 24 -172.5t77 -123t128 -47.5zM237 734l-7 6l114 171q10 15 16.5 18.5t27.5 3.5t26.5 -3t14.5 -17l115 -173l-7 -6l-151 128z" />
    <glyph glyph-name="Otilde" unicode="&#xd5;" horiz-adv-x="775" 
d="M384 -16q-139 0 -239 94q-107 101 -107 256q0 164 97 261q102 104 253 104q147 0 254 -104q45 -45 70 -110.5t25 -138.5q0 -168 -104 -266q-101 -96 -249 -96zM388 -4q112 0 170 96t58 251q0 68 -12.5 127.5t-38.5 109t-71.5 78.5t-105.5 29q-107 0 -168 -92.5
t-61 -255.5q0 -97 24 -172.5t77 -123t128 -47.5zM202 755l-9 4q16 45 49 85t76 40q42 0 92.5 -29t71.5 -29q59 0 91 67l9 -3q-12 -43 -48 -84t-80 -41t-92.5 28t-73.5 28q-27 0 -46.5 -15.5t-39.5 -50.5z" />
    <glyph glyph-name="Odieresis" unicode="&#xd6;" horiz-adv-x="775" 
d="M384 -16q-139 0 -239 94q-107 101 -107 256q0 164 97 261q102 104 253 104q147 0 254 -104q45 -45 70 -110.5t25 -138.5q0 -168 -104 -266q-101 -96 -249 -96zM388 -4q112 0 170 96t58 251q0 68 -12.5 127.5t-38.5 109t-71.5 78.5t-105.5 29q-107 0 -168 -92.5
t-61 -255.5q0 -97 24 -172.5t77 -123t128 -47.5zM277 764q-23 0 -40 17t-17 40q0 24 17 41.5t40 17.5q26 0 43 -16.5t17 -38.5q0 -25 -17.5 -43t-42.5 -18zM495 764q-24 0 -41 17t-17 40q0 24 17 41.5t41 17.5q25 0 42 -16.5t17 -38.5q0 -25 -17 -43t-42 -18z" />
    <glyph glyph-name="multiply" unicode="&#xd7;" horiz-adv-x="559" 
d="M81 37l-23 23l199 198l-198 198l25 24l197 -197l197 197l22 -23l-197 -196l198 -198l-24 -25l-199 198z" />
    <glyph glyph-name="Oslash" unicode="&#xd8;" horiz-adv-x="775" 
d="M56 -33l-11 9l96 105q-103 98 -103 253q0 164 97 261q102 104 253 104q137 0 238 -90l92 101l11 -8l-93 -102q101 -99 101 -254q0 -168 -104 -266q-101 -96 -249 -96q-133 0 -232 88zM388 -4q112 0 170 96t58 251q0 115 -34 199l-382 -417q60 -129 188 -129zM194 138
l382 417q-59 132 -188 132q-107 0 -168 -92.5t-61 -255.5q0 -118 35 -201z" />
    <glyph glyph-name="Ugrave" unicode="&#xd9;" horiz-adv-x="791" 
d="M400 -16q-125 0 -195 56.5t-70 139.5v433q0 34 -31 50q-20 10 -70 13v7h311v-7q-40 -2 -72 -13q-31 -10 -31 -49v-421q0 -31 7 -58t25 -55t56.5 -44t93.5 -16q110 0 165 55t55 127v311q0 112 -34 134q-41 26 -102 29v7h275v-7q-17 -1 -47.5 -8t-44.5 -16
q-33 -21 -33 -133v-321q0 -47 -17.5 -84.5t-44.5 -61t-62.5 -39.5t-68.5 -22.5t-65 -6.5zM500 724l-149 114q-20 16 -28 27t-8 28q0 15 12 26.5t29 11.5q36 0 61 -43q10 -16 38.5 -70t49.5 -90z" />
    <glyph glyph-name="Uacute" unicode="&#xda;" horiz-adv-x="791" 
d="M400 -16q-125 0 -195 56.5t-70 139.5v433q0 34 -31 50q-20 10 -70 13v7h311v-7q-40 -2 -72 -13q-31 -10 -31 -49v-421q0 -31 7 -58t25 -55t56.5 -44t93.5 -16q110 0 165 55t55 127v311q0 112 -34 134q-41 26 -102 29v7h275v-7q-17 -1 -47.5 -8t-44.5 -16
q-33 -21 -33 -133v-321q0 -47 -17.5 -84.5t-44.5 -61t-62.5 -39.5t-68.5 -22.5t-65 -6.5zM346 724l-5 5q21 36 49 88.5t39 70.5q25 43 61 43q17 0 28.5 -11.5t11.5 -26.5q0 -17 -8 -28t-28 -27z" />
    <glyph glyph-name="Ucircumflex" unicode="&#xdb;" horiz-adv-x="791" 
d="M400 -16q-125 0 -195 56.5t-70 139.5v433q0 34 -31 50q-20 10 -70 13v7h311v-7q-40 -2 -72 -13q-31 -10 -31 -49v-421q0 -31 7 -58t25 -55t56.5 -44t93.5 -16q110 0 165 55t55 127v311q0 112 -34 134q-41 26 -102 29v7h275v-7q-17 -1 -47.5 -8t-44.5 -16
q-33 -21 -33 -133v-321q0 -47 -17.5 -84.5t-44.5 -61t-62.5 -39.5t-68.5 -22.5t-65 -6.5zM278 734l-7 6l114 171q10 15 16.5 18.5t27.5 3.5t26.5 -3t14.5 -17l115 -173l-7 -6l-151 128z" />
    <glyph glyph-name="Udieresis" unicode="&#xdc;" horiz-adv-x="791" 
d="M400 -16q-125 0 -195 56.5t-70 139.5v433q0 34 -31 50q-20 10 -70 13v7h311v-7q-40 -2 -72 -13q-31 -10 -31 -49v-421q0 -31 7 -58t25 -55t56.5 -44t93.5 -16q110 0 165 55t55 127v311q0 112 -34 134q-41 26 -102 29v7h275v-7q-17 -1 -47.5 -8t-44.5 -16
q-33 -21 -33 -133v-321q0 -47 -17.5 -84.5t-44.5 -61t-62.5 -39.5t-68.5 -22.5t-65 -6.5zM319 764q-23 0 -40 17t-17 40q0 24 17 41.5t40 17.5q26 0 43 -16.5t17 -38.5q0 -25 -17.5 -43t-42.5 -18zM537 764q-24 0 -41 17t-17 40q0 24 17 41.5t41 17.5q25 0 42 -16.5
t17 -38.5q0 -25 -17 -43t-42 -18z" />
    <glyph glyph-name="Yacute" unicode="&#xdd;" horiz-adv-x="635" 
d="M148 0v7q59 3 82 12q31 12 31 50v189q0 23 -26 75q-65 128 -142 258q-29 51 -60 69q-25 14 -65 16v7h322v-7q-101 -6 -101 -35q0 -10 49 -100l126 -227q94 155 129 220q42 78 42 94q0 40 -116 48v7h241v-7q-26 -2 -45 -14q-34 -20 -56 -51q-40 -58 -164 -277
q-18 -33 -23 -53.5t-5 -58.5v-151q0 -37 31 -50q26 -11 82 -14v-7h-332zM290 724l-5 5q21 36 49 88.5t39 70.5q25 43 61 43q17 0 28.5 -11.5t11.5 -26.5q0 -17 -8 -28t-28 -27z" />
    <glyph glyph-name="Thorn" unicode="&#xde;" horiz-adv-x="621" 
d="M45 0v7q51 3 72 11q31 12 31 50v543q0 41 -31 51q-37 12 -76 14v7h317v-7q-48 -3 -73 -11q-31 -10 -31 -47v-83h128q87 0 147.5 -44.5t60.5 -119.5q0 -96 -77.5 -151t-179.5 -55h-79v-97q0 -38 31 -50q23 -9 79 -11v-7h-319zM254 177h49q41 0 72 13.5t47.5 33t27 44.5
t13.5 44t3 36q0 31 -7 59.5t-22 55.5t-44.5 43t-70.5 16h-68v-345z" />
    <glyph glyph-name="germandbls" unicode="&#xdf;" horiz-adv-x="592" 
d="M409 -14q-66 0 -101 29.5t-35 73.5q0 28 12.5 45.5t37.5 17.5q42 0 42 -48q0 -14 -10 -32.5t-10 -27.5q0 -17 18.5 -32.5t50.5 -15.5q41 0 65 29t24 67q0 34 -19 61t-80 71q-103 71 -103 137q0 27 11.5 47t35.5 45t35 40q27 39 27 98q0 70 -27.5 108t-74.5 38
q-58 0 -84 -50t-29 -165v-522h-162v7q29 2 44 7q27 9 27 45v375h-102v16h102v31q0 132 67 203q59 63 151 63q66 0 112 -35.5t46 -94.5q0 -74 -59 -120q-9 -7 -25 -17.5t-23.5 -16.5t-14 -14.5t-6.5 -18.5q0 -23 22.5 -50t86.5 -75q60 -44 82 -77t22 -86q0 -65 -44.5 -110.5
t-111.5 -45.5z" />
    <glyph glyph-name="agrave" unicode="&#xe0;" horiz-adv-x="490" 
d="M153 -12q-52 0 -84 29t-32 77q0 55 25.5 81.5t72.5 44.5q18 7 81 27.5t87 33.5v71q0 12 -2 24.5t-9.5 33t-26.5 33t-48 12.5q-41 0 -63 -27q0 -14 5.5 -41t5.5 -37q0 -17 -16 -30t-42 -13q-23 0 -34 15t-11 37q0 43 50.5 74.5t110.5 31.5q42 0 69.5 -4.5t53 -19
t37.5 -45.5t12 -79q0 -51 -2.5 -136t-2.5 -95q0 -15 12.5 -33t34.5 -18q23 0 35.5 25.5t15.5 58.5h10q-8 -129 -106 -129q-65 0 -88 67h-3q-59 -69 -148 -69zM202 23q60 0 98 48l4 196q-84 -26 -127 -61t-43 -97q0 -41 18 -63.5t50 -22.5zM335 524l-149 114q-20 16 -28 27
t-8 28q0 15 12 26.5t29 11.5q36 0 61 -43q10 -16 38.5 -70t49.5 -90z" />
    <glyph glyph-name="aacute" unicode="&#xe1;" horiz-adv-x="490" 
d="M153 -12q-52 0 -84 29t-32 77q0 55 25.5 81.5t72.5 44.5q18 7 81 27.5t87 33.5v71q0 12 -2 24.5t-9.5 33t-26.5 33t-48 12.5q-41 0 -63 -27q0 -14 5.5 -41t5.5 -37q0 -17 -16 -30t-42 -13q-23 0 -34 15t-11 37q0 43 50.5 74.5t110.5 31.5q42 0 69.5 -4.5t53 -19
t37.5 -45.5t12 -79q0 -51 -2.5 -136t-2.5 -95q0 -15 12.5 -33t34.5 -18q23 0 35.5 25.5t15.5 58.5h10q-8 -129 -106 -129q-65 0 -88 67h-3q-59 -69 -148 -69zM202 23q60 0 98 48l4 196q-84 -26 -127 -61t-43 -97q0 -41 18 -63.5t50 -22.5zM156 524l-5 5q21 36 49 88.5
t39 70.5q25 43 61 43q17 0 28.5 -11.5t11.5 -26.5q0 -17 -8 -28t-28 -27z" />
    <glyph glyph-name="acircumflex" unicode="&#xe2;" horiz-adv-x="490" 
d="M153 -12q-52 0 -84 29t-32 77q0 55 25.5 81.5t72.5 44.5q18 7 81 27.5t87 33.5v71q0 12 -2 24.5t-9.5 33t-26.5 33t-48 12.5q-41 0 -63 -27q0 -14 5.5 -41t5.5 -37q0 -17 -16 -30t-42 -13q-23 0 -34 15t-11 37q0 43 50.5 74.5t110.5 31.5q42 0 69.5 -4.5t53 -19
t37.5 -45.5t12 -79q0 -51 -2.5 -136t-2.5 -95q0 -15 12.5 -33t34.5 -18q23 0 35.5 25.5t15.5 58.5h10q-8 -129 -106 -129q-65 0 -88 67h-3q-59 -69 -148 -69zM202 23q60 0 98 48l4 196q-84 -26 -127 -61t-43 -97q0 -41 18 -63.5t50 -22.5zM95 534l-7 6l114 171
q10 15 16.5 18.5t27.5 3.5t26.5 -3t14.5 -17l115 -173l-7 -6l-151 128z" />
    <glyph glyph-name="atilde" unicode="&#xe3;" horiz-adv-x="490" 
d="M153 -12q-52 0 -84 29t-32 77q0 55 25.5 81.5t72.5 44.5q18 7 81 27.5t87 33.5v71q0 12 -2 24.5t-9.5 33t-26.5 33t-48 12.5q-41 0 -63 -27q0 -14 5.5 -41t5.5 -37q0 -17 -16 -30t-42 -13q-23 0 -34 15t-11 37q0 43 50.5 74.5t110.5 31.5q42 0 69.5 -4.5t53 -19
t37.5 -45.5t12 -79q0 -51 -2.5 -136t-2.5 -95q0 -15 12.5 -33t34.5 -18q23 0 35.5 25.5t15.5 58.5h10q-8 -129 -106 -129q-65 0 -88 67h-3q-59 -69 -148 -69zM202 23q60 0 98 48l4 196q-84 -26 -127 -61t-43 -97q0 -41 18 -63.5t50 -22.5zM60 555l-9 4q16 45 49 85t76 40
q42 0 92.5 -29t71.5 -29q59 0 91 67l9 -3q-12 -43 -48 -84t-80 -41t-92.5 28t-73.5 28q-27 0 -46.5 -15.5t-39.5 -50.5z" />
    <glyph glyph-name="adieresis" unicode="&#xe4;" horiz-adv-x="490" 
d="M153 -12q-52 0 -84 29t-32 77q0 55 25.5 81.5t72.5 44.5q18 7 81 27.5t87 33.5v71q0 12 -2 24.5t-9.5 33t-26.5 33t-48 12.5q-41 0 -63 -27q0 -14 5.5 -41t5.5 -37q0 -17 -16 -30t-42 -13q-23 0 -34 15t-11 37q0 43 50.5 74.5t110.5 31.5q42 0 69.5 -4.5t53 -19
t37.5 -45.5t12 -79q0 -51 -2.5 -136t-2.5 -95q0 -15 12.5 -33t34.5 -18q23 0 35.5 25.5t15.5 58.5h10q-8 -129 -106 -129q-65 0 -88 67h-3q-59 -69 -148 -69zM202 23q60 0 98 48l4 196q-84 -26 -127 -61t-43 -97q0 -41 18 -63.5t50 -22.5zM135 555q-23 0 -40 17t-17 40
q0 24 17 41.5t40 17.5q26 0 43 -16.5t17 -38.5q0 -25 -17.5 -43t-42.5 -18zM353 555q-24 0 -41 17t-17 40q0 24 17 41.5t41 17.5q25 0 42 -16.5t17 -38.5q0 -25 -17 -43t-42 -18z" />
    <glyph glyph-name="aring" unicode="&#xe5;" horiz-adv-x="490" 
d="M153 -12q-52 0 -84 29t-32 77q0 55 25.5 81.5t72.5 44.5q18 7 81 27.5t87 33.5v71q0 12 -2 24.5t-9.5 33t-26.5 33t-48 12.5q-41 0 -63 -27q0 -14 5.5 -41t5.5 -37q0 -17 -16 -30t-42 -13q-23 0 -34 15t-11 37q0 43 50.5 74.5t110.5 31.5q42 0 69.5 -4.5t53 -19
t37.5 -45.5t12 -79q0 -51 -2.5 -136t-2.5 -95q0 -15 12.5 -33t34.5 -18q23 0 35.5 25.5t15.5 58.5h10q-8 -129 -106 -129q-65 0 -88 67h-3q-59 -69 -148 -69zM202 23q60 0 98 48l4 196q-84 -26 -127 -61t-43 -97q0 -41 18 -63.5t50 -22.5zM245 531q-51 0 -81.5 27t-30.5 71
q0 43 32.5 70.5t79.5 27.5q49 0 80.5 -27t31.5 -71q0 -43 -31 -70.5t-81 -27.5zM245 540q30 0 45 26t15 63q0 36 -15 62.5t-45 26.5t-45 -25.5t-15 -63.5q0 -37 15 -63t45 -26z" />
    <glyph glyph-name="ae" unicode="&#xe6;" horiz-adv-x="721" 
d="M153 -12q-52 0 -84 29t-32 77q0 55 25.5 81.5t72.5 44.5q18 7 81 27.5t87 33.5v71q0 12 -2 24.5t-9.5 33t-26.5 33t-48 12.5q-41 0 -63 -27q0 -14 5.5 -41t5.5 -37q0 -17 -16 -30t-42 -13q-23 0 -34 15t-11 37q0 43 50.5 74.5t110.5 31.5q54 0 89 -11t58 -43
q54 54 137 54q96 0 141.5 -53t45.5 -133v-9h-298v-17q0 -234 149 -234q55 0 87.5 22.5t63.5 72.5l8 -5q-27 -55 -76 -88t-110 -33q-128 0 -189 102q-63 -102 -176 -102zM202 23q62 0 98 45l4 199q-84 -26 -127 -61t-43 -97q0 -41 18 -63.5t50 -22.5zM396 280l201 2
q0 173 -91 173q-47 0 -77.5 -48.5t-32.5 -126.5z" />
    <glyph glyph-name="ccedilla" unicode="&#xe7;" horiz-adv-x="435" 
d="M137 -230v12q138 0 138 63q0 40 -85 40v109q-77 18 -117.5 80.5t-40.5 153.5q0 96 61.5 166.5t160.5 70.5q74 0 114.5 -33.5t40.5 -82.5q0 -25 -15.5 -40.5t-40.5 -15.5q-19 0 -35.5 12t-16.5 38q0 24 11 46.5t11 29.5q-3 16 -22.5 26t-46.5 10q-53 0 -87 -55t-34 -163
q0 -97 37.5 -156t102.5 -59q100 0 152 91l9 -6q-29 -52 -78.5 -85.5t-106.5 -33.5q-27 0 -46 4v-50q142 0 142 -76q0 -31 -17 -51.5t-49.5 -29.5t-64.5 -12t-77 -3z" />
    <glyph glyph-name="egrave" unicode="&#xe8;" horiz-adv-x="456" 
d="M253 -12q-108 0 -164.5 68.5t-56.5 173.5q0 95 57.5 165t152.5 70q96 0 141.5 -53t45.5 -133v-9h-298v-17q0 -234 149 -234q55 0 87.5 22.5t63.5 72.5l8 -5q-27 -55 -76 -88t-110 -33zM131 280l201 2q0 173 -91 173q-47 0 -77.5 -48.5t-32.5 -126.5zM318 524l-149 114
q-20 16 -28 27t-8 28q0 15 12 26.5t29 11.5q36 0 61 -43q10 -16 38.5 -70t49.5 -90z" />
    <glyph glyph-name="eacute" unicode="&#xe9;" horiz-adv-x="456" 
d="M253 -12q-108 0 -164.5 68.5t-56.5 173.5q0 95 57.5 165t152.5 70q96 0 141.5 -53t45.5 -133v-9h-298v-17q0 -234 149 -234q55 0 87.5 22.5t63.5 72.5l8 -5q-27 -55 -76 -88t-110 -33zM131 280l201 2q0 173 -91 173q-47 0 -77.5 -48.5t-32.5 -126.5zM167 524l-5 5
q21 36 49 88.5t39 70.5q25 43 61 43q17 0 28.5 -11.5t11.5 -26.5q0 -17 -8 -28t-28 -27z" />
    <glyph glyph-name="ecircumflex" unicode="&#xea;" horiz-adv-x="456" 
d="M253 -12q-108 0 -164.5 68.5t-56.5 173.5q0 95 57.5 165t152.5 70q96 0 141.5 -53t45.5 -133v-9h-298v-17q0 -234 149 -234q55 0 87.5 22.5t63.5 72.5l8 -5q-27 -55 -76 -88t-110 -33zM131 280l201 2q0 173 -91 173q-47 0 -77.5 -48.5t-32.5 -126.5zM88 534l-7 6l114 171
q10 15 16.5 18.5t27.5 3.5t26.5 -3t14.5 -17l115 -173l-7 -6l-151 128z" />
    <glyph glyph-name="edieresis" unicode="&#xeb;" horiz-adv-x="456" 
d="M253 -12q-108 0 -164.5 68.5t-56.5 173.5q0 95 57.5 165t152.5 70q96 0 141.5 -53t45.5 -133v-9h-298v-17q0 -234 149 -234q55 0 87.5 22.5t63.5 72.5l8 -5q-27 -55 -76 -88t-110 -33zM131 280l201 2q0 173 -91 173q-47 0 -77.5 -48.5t-32.5 -126.5zM128 555
q-23 0 -40 17t-17 40q0 24 17 41.5t40 17.5q26 0 43 -16.5t17 -38.5q0 -25 -17.5 -43t-42.5 -18zM346 555q-24 0 -41 17t-17 40q0 24 17 41.5t41 17.5q25 0 42 -16.5t17 -38.5q0 -25 -17 -43t-42 -18z" />
    <glyph glyph-name="igrave" unicode="&#xec;" horiz-adv-x="286" 
d="M33 0v7q24 1 44 7q27 9 27 45v316q-4 37 -27 53q-16 11 -59 13v6l173 11l4 -4v-390q0 -36 27 -48q15 -7 47 -9v-7h-236zM190 524l-149 114q-20 16 -28 27t-8 28q0 15 12 26.5t29 11.5q36 0 61 -43q10 -16 38.5 -70t49.5 -90z" />
    <glyph glyph-name="iacute" unicode="&#xed;" horiz-adv-x="281" 
d="M78 524l-5 5q21 36 49 88.5t39 70.5q25 43 61 43q17 0 28.5 -11.5t11.5 -26.5q0 -17 -8 -28t-28 -27zM33 0v7q24 1 44 7q27 9 27 45v316q-4 37 -27 53q-16 11 -59 13v6l173 11l4 -4v-390q0 -36 27 -48q15 -7 47 -9v-7h-236z" />
    <glyph glyph-name="icircumflex" unicode="&#xee;" horiz-adv-x="286" 
d="M2 531l-5 4l90 179q12 22 45 22q34 0 43 -20l90 -181l-6 -4l-128 130zM33 0v7q24 1 44 7q27 9 27 45v316q-4 37 -27 53q-16 11 -59 13v6l173 11l4 -4v-390q0 -36 27 -48q15 -7 47 -9v-7h-236z" />
    <glyph glyph-name="idieresis" unicode="&#xef;" horiz-adv-x="286" 
d="M34 555q-23 0 -39.5 16.5t-16.5 39.5q0 24 16.5 41t39.5 17q25 0 41.5 -16t16.5 -39q0 -24 -17 -41.5t-41 -17.5zM226 555q-24 0 -40.5 16.5t-16.5 39.5q0 24 16.5 41t40.5 17t40.5 -16t16.5 -39q0 -24 -16.5 -41.5t-40.5 -17.5zM33 0v7q24 1 44 7q27 9 27 45v316
q-4 37 -27 53q-16 11 -59 13v6l173 11l4 -4v-390q0 -36 27 -48q15 -7 47 -9v-7h-236z" />
    <glyph glyph-name="eth" unicode="&#xf0;" horiz-adv-x="523" 
d="M264 -14q-97 0 -165 63t-68 179q0 107 67 172t168 65q82 0 120 -56l4 1q-17 139 -89 232l-113 -73l-10 16l110 72q-47 57 -82 82l4 7q61 -31 108 -70l90 60l10 -17l-85 -56q160 -142 160 -373q0 -126 -59.5 -215t-169.5 -89zM263 -4q64 0 96 65t32 169q0 97 -30.5 161
t-97.5 64q-37 0 -64 -19.5t-41 -53t-20 -70.5t-6 -80q0 -105 32 -170.5t99 -65.5z" />
    <glyph glyph-name="ntilde" unicode="&#xf1;" horiz-adv-x="584" 
d="M32 0v7q24 1 44 7q27 9 27 45v316q-4 37 -27 53q-17 11 -49 13v6l163 11l4 -4v-71h2l12 12t14 13.5t13.5 12t16 12.5t16 10t19 9.5l20.5 6t24.5 5t26.5 1.5q68 0 102 -42t34 -116v-244q0 -36 26 -48q15 -6 44 -8v-7h-236v7q28 2 47 7q27 9 27 45v260q0 49 -24.5 78
t-58.5 29q-49 0 -81.5 -21.5t-43.5 -44.5v-296q0 -36 27 -48q15 -7 47 -9v-7h-236zM106 555l-9 4q16 45 49 85t76 40q42 0 92.5 -29t71.5 -29q59 0 91 67l9 -3q-12 -43 -48 -84t-80 -41t-92.5 28t-73.5 28q-27 0 -46.5 -15.5t-39.5 -50.5z" />
    <glyph glyph-name="ograve" unicode="&#xf2;" horiz-adv-x="523" 
d="M257 -14q-94 0 -160 65.5t-66 172.5t64 174t169 67q103 0 165.5 -66t62.5 -168q0 -104 -63 -174.5t-172 -70.5zM263 -4q64 0 96 65t32 169q0 97 -30.5 161t-97.5 64q-37 0 -64 -19.5t-41 -53t-20 -70.5t-6 -80q0 -105 32 -170.5t99 -65.5zM341 524l-149 114
q-20 16 -28 27t-8 28q0 15 12 26.5t29 11.5q36 0 61 -43q10 -16 38.5 -70t49.5 -90z" />
    <glyph glyph-name="oacute" unicode="&#xf3;" horiz-adv-x="523" 
d="M257 -14q-94 0 -160 65.5t-66 172.5t64 174t169 67q103 0 165.5 -66t62.5 -168q0 -104 -63 -174.5t-172 -70.5zM263 -4q64 0 96 65t32 169q0 97 -30.5 161t-97.5 64q-37 0 -64 -19.5t-41 -53t-20 -70.5t-6 -80q0 -105 32 -170.5t99 -65.5zM182 524l-5 5q21 36 49 88.5
t39 70.5q25 43 61 43q17 0 28.5 -11.5t11.5 -26.5q0 -17 -8 -28t-28 -27z" />
    <glyph glyph-name="ocircumflex" unicode="&#xf4;" horiz-adv-x="523" 
d="M257 -14q-94 0 -160 65.5t-66 172.5t64 174t169 67q103 0 165.5 -66t62.5 -168q0 -104 -63 -174.5t-172 -70.5zM263 -4q64 0 96 65t32 169q0 97 -30.5 161t-97.5 64q-37 0 -64 -19.5t-41 -53t-20 -70.5t-6 -80q0 -105 32 -170.5t99 -65.5zM111 534l-7 6l114 171
q10 15 16.5 18.5t27.5 3.5t26.5 -3t14.5 -17l115 -173l-7 -6l-151 128z" />
    <glyph glyph-name="otilde" unicode="&#xf5;" horiz-adv-x="523" 
d="M257 -14q-94 0 -160 65.5t-66 172.5t64 174t169 67q103 0 165.5 -66t62.5 -168q0 -104 -63 -174.5t-172 -70.5zM263 -4q64 0 96 65t32 169q0 97 -30.5 161t-97.5 64q-37 0 -64 -19.5t-41 -53t-20 -70.5t-6 -80q0 -105 32 -170.5t99 -65.5zM76 555l-9 4q16 45 49 85t76 40
q42 0 92.5 -29t71.5 -29q59 0 91 67l9 -3q-12 -43 -48 -84t-80 -41t-92.5 28t-73.5 28q-27 0 -46.5 -15.5t-39.5 -50.5z" />
    <glyph glyph-name="odieresis" unicode="&#xf6;" horiz-adv-x="523" 
d="M257 -14q-94 0 -160 65.5t-66 172.5t64 174t169 67q103 0 165.5 -66t62.5 -168q0 -104 -63 -174.5t-172 -70.5zM263 -4q64 0 96 65t32 169q0 97 -30.5 161t-97.5 64q-37 0 -64 -19.5t-41 -53t-20 -70.5t-6 -80q0 -105 32 -170.5t99 -65.5zM151 555q-23 0 -40 17t-17 40
q0 24 17 41.5t40 17.5q26 0 43 -16.5t17 -38.5q0 -25 -17.5 -43t-42.5 -18zM369 555q-24 0 -41 17t-17 40q0 24 17 41.5t41 17.5q25 0 42 -16.5t17 -38.5q0 -25 -17 -43t-42 -18z" />
    <glyph glyph-name="divide" unicode="&#xf7;" horiz-adv-x="559" 
d="M279 61q-21 0 -35.5 14.5t-14.5 36.5q0 21 14.5 36t35.5 15q22 0 37 -15t15 -36q0 -22 -15 -36.5t-37 -14.5zM279 356q-21 0 -35.5 14.5t-14.5 35.5q0 22 14.5 36.5t35.5 14.5q22 0 37 -14.5t15 -36.5q0 -21 -15 -35.5t-37 -14.5zM40 242v35h479v-35h-479z" />
    <glyph glyph-name="oslash" unicode="&#xf8;" horiz-adv-x="523" 
d="M52 -25l-10 8l58 66q-69 67 -69 175q0 107 64 174t169 67q91 0 153 -54l72 82l9 -8l-72 -83q66 -66 66 -171q0 -104 -63 -174.5t-172 -70.5q-85 0 -148 54zM263 -4q64 0 96 65t32 169q0 68 -14 117l-225 -258q33 -93 111 -93zM147 103l226 258q-31 94 -110 94
q-37 0 -64 -19.5t-41 -53t-20 -70.5t-6 -80q0 -79 15 -129z" />
    <glyph glyph-name="ugrave" unicode="&#xf9;" horiz-adv-x="567" 
d="M220 -12q-67 0 -98.5 44t-31.5 119v223q-3 34 -26 50q-22 14 -50 16v6l161 12l7 -7v-328q0 -50 22.5 -76.5t56.5 -26.5q79 0 121 68v289q-3 34 -26 50q-17 11 -65 13v6l175 12l7 -7v-375q3 -36 23 -49q15 -10 51 -12v-6l-157 -11l-7 7v61h-3q-28 -28 -41 -39.5t-46 -25
t-73 -13.5zM353 524l-149 114q-20 16 -28 27t-8 28q0 15 12 26.5t29 11.5q36 0 61 -43q10 -16 38.5 -70t49.5 -90z" />
    <glyph glyph-name="uacute" unicode="&#xfa;" horiz-adv-x="567" 
d="M220 -12q-67 0 -98.5 44t-31.5 119v223q-3 34 -26 50q-22 14 -50 16v6l161 12l7 -7v-328q0 -50 22.5 -76.5t56.5 -26.5q79 0 121 68v289q-3 34 -26 50q-17 11 -65 13v6l175 12l7 -7v-375q3 -36 23 -49q15 -10 51 -12v-6l-157 -11l-7 7v61h-3q-28 -28 -41 -39.5t-46 -25
t-73 -13.5zM204 524l-5 5q21 36 49 88.5t39 70.5q25 43 61 43q17 0 28.5 -11.5t11.5 -26.5q0 -17 -8 -28t-28 -27z" />
    <glyph glyph-name="ucircumflex" unicode="&#xfb;" horiz-adv-x="567" 
d="M220 -12q-67 0 -98.5 44t-31.5 119v223q-3 34 -26 50q-22 14 -50 16v6l161 12l7 -7v-328q0 -50 22.5 -76.5t56.5 -26.5q79 0 121 68v289q-3 34 -26 50q-17 11 -65 13v6l175 12l7 -7v-375q3 -36 23 -49q15 -10 51 -12v-6l-157 -11l-7 7v61h-3q-28 -28 -41 -39.5t-46 -25
t-73 -13.5zM123 534l-7 6l114 171q10 15 16.5 18.5t27.5 3.5t26.5 -3t14.5 -17l115 -173l-7 -6l-151 128z" />
    <glyph glyph-name="udieresis" unicode="&#xfc;" horiz-adv-x="567" 
d="M220 -12q-67 0 -98.5 44t-31.5 119v223q-3 34 -26 50q-22 14 -50 16v6l161 12l7 -7v-328q0 -50 22.5 -76.5t56.5 -26.5q79 0 121 68v289q-3 34 -26 50q-17 11 -65 13v6l175 12l7 -7v-375q3 -36 23 -49q15 -10 51 -12v-6l-157 -11l-7 7v61h-3q-28 -28 -41 -39.5t-46 -25
t-73 -13.5zM163 555q-23 0 -40 17t-17 40q0 24 17 41.5t40 17.5q26 0 43 -16.5t17 -38.5q0 -25 -17.5 -43t-42.5 -18zM381 555q-24 0 -41 17t-17 40q0 24 17 41.5t41 17.5q25 0 42 -16.5t17 -38.5q0 -25 -17 -43t-42 -18z" />
    <glyph glyph-name="yacute" unicode="&#xfd;" horiz-adv-x="462" 
d="M62 -226q-26 0 -50 17t-24 51q0 21 16 39.5t41 18.5q23 0 39.5 -13t16.5 -41l-8 -54q32 3 67.5 52.5t55.5 97.5l19 48q-30 73 -180 406q-9 22 -24 33.5t-44 15.5v7h219v-9q-60 -3 -60 -21q0 -4 7 -21q10 -27 32 -76l53 -116.5l46 -99.5l109 273q6 16 6 28q0 25 -76 36v6
h160v-5q-47 -8 -69 -56q-35 -78 -167 -406q-36 -90 -69 -138t-57.5 -60.5t-58.5 -12.5zM214 524l-5 5q21 36 49 88.5t39 70.5q25 43 61 43q17 0 28.5 -11.5t11.5 -26.5q0 -17 -8 -28t-28 -27z" />
    <glyph glyph-name="thorn" unicode="&#xfe;" horiz-adv-x="566" 
d="M11 -226v7q29 2 55 9q26 8 26 47v828q-3 34 -26 50q-18 12 -55 14v6l167 11l4 -5v-340l4 -1q60 65 135 65q88 0 148 -67.5t60 -175.5q0 -100 -68 -167t-159 -67q-73 0 -115 31h-4v-176q0 -36 28 -47q32 -13 69 -15v-7h-269zM294 -3q64 0 98.5 61t34.5 165q0 90 -34.5 149
t-105.5 59q-64 0 -104 -47v-308q10 -30 38.5 -54.5t72.5 -24.5z" />
    <glyph glyph-name="ydieresis" unicode="&#xff;" horiz-adv-x="462" 
d="M62 -226q-26 0 -50 17t-24 51q0 21 16 39.5t41 18.5q23 0 39.5 -13t16.5 -41l-8 -54q32 3 67.5 52.5t55.5 97.5l19 48q-30 73 -180 406q-9 22 -24 33.5t-44 15.5v7h219v-9q-60 -3 -60 -21q0 -4 7 -21q10 -27 32 -76l53 -116.5l46 -99.5l109 273q6 16 6 28q0 25 -76 36v6
h160v-5q-47 -8 -69 -56q-35 -78 -167 -406q-36 -90 -69 -138t-57.5 -60.5t-58.5 -12.5zM139 555q-23 0 -40 17t-17 40q0 24 17 41.5t40 17.5q26 0 43 -16.5t17 -38.5q0 -25 -17.5 -43t-42.5 -18zM357 555q-24 0 -41 17t-17 40q0 24 17 41.5t41 17.5q25 0 42 -16.5t17 -38.5
q0 -25 -17 -43t-42 -18z" />
    <glyph glyph-name="dotlessi" unicode="&#x131;" horiz-adv-x="286" 
d="M33 0v7q24 1 44 7q27 9 27 45v316q-4 37 -27 53q-16 11 -59 13v6l173 11l4 -4v-390q0 -36 27 -48q15 -7 47 -9v-7h-236z" />
    <glyph glyph-name="Lslash" unicode="&#x141;" horiz-adv-x="629" 
d="M44 0v7q50 3 73 12q31 12 31 49v239l-92 -33l-7 19l99 36v282q0 36 -31 50q-28 13 -72 15v7h313v-7q-52 -3 -73 -10q-31 -10 -31 -50v-251l139 51l8 -19l-147 -54v-240q0 -60 21 -75.5t98 -15.5q106 0 133 9q15 5 23 14q21 21 51.5 77t39.5 82h9l-13 -194h-572z" />
    <glyph glyph-name="lslash" unicode="&#x142;" horiz-adv-x="298" 
d="M34 0v7q24 1 44 7q27 9 27 45v254l-87 -31l-6 19l93 33v329q-4 37 -27 53q-15 10 -69 13v6l183 11l4 -4v-377l84 31l7 -19l-91 -33v-280q0 -36 27 -48q16 -7 44 -9v-7h-233z" />
    <glyph glyph-name="OE" unicode="&#x152;" horiz-adv-x="1048" 
d="M402 0q-47 0 -94.5 10t-97 35t-87 63t-61.5 99t-24 137q0 110 56 189t140.5 114.5t184.5 35.5h552v-155h-9q-9 37 -45.5 86.5t-66.5 53.5q-32 4 -101 4h-113v-312h100q26 0 45 6.5t24 11t15 14.5q11 11 22.5 44t13.5 55h9v-279h-9q-1 21 -14 57.5t-22 46.5q-30 32 -84 32
h-100v-245q0 -60 21 -75.5t98 -15.5q118 0 148 10q15 5 22 13q21 21 51.5 76t39.5 81h9l-13 -192h-610zM431 10q36 0 57.5 8.5t27.5 18.5t10 27q4 19 4 285q0 238 -2 255q-4 35 -31 51.5t-85 16.5q-125 0 -189 -88.5t-64 -238.5q0 -145 74.5 -240t197.5 -95z" />
    <glyph glyph-name="oe" unicode="&#x153;" horiz-adv-x="815" 
d="M257 -14q-94 0 -160 65.5t-66 172.5t64 174t169 67q113 0 177 -79q61 79 160 79q96 0 141.5 -53t45.5 -133v-9h-298v-17q0 -234 149 -234q55 0 87.5 22.5t63.5 72.5l8 -5q-27 -55 -76 -88t-110 -33q-113 0 -174 79q-63 -81 -181 -81zM263 -4q64 0 96 65t32 169
q0 97 -30.5 161t-97.5 64q-37 0 -64 -19.5t-41 -53t-20 -70.5t-6 -80q0 -105 32 -170.5t99 -65.5zM490 280l201 2q0 173 -91 173q-47 0 -77.5 -48.5t-32.5 -126.5z" />
    <glyph glyph-name="Scaron" unicode="&#x160;" horiz-adv-x="547" 
d="M284 -13q-60 0 -111 17t-78 38l-35 -52h-9l-7 234h9q42 -107 94.5 -165.5t138.5 -58.5q70 0 104.5 41t34.5 102q0 45 -27 78.5t-73 52.5q-113 45 -143 59q-118 52 -118 178q0 79 57 132t143 53q100 0 169 -53l35 50h8l5 -227h-9q-14 45 -30.5 80.5t-41.5 68t-60.5 50.5
t-79.5 18q-45 0 -81 -32t-36 -87q0 -43 22.5 -72.5t67.5 -53.5q28 -15 74 -33t62 -25q73 -34 107 -72.5t34 -112.5q0 -91 -64.5 -149.5t-161.5 -58.5zM272 739q-21 0 -26.5 3t-14.5 17l-115 173l7 6l151 -128l149 128l7 -6l-114 -171q-10 -15 -16.5 -18.5t-27.5 -3.5z" />
    <glyph glyph-name="scaron" unicode="&#x161;" horiz-adv-x="401" 
d="M199 -14q-43 0 -81.5 14t-53.5 29l-17 -34h-10l-5 155h8q15 -47 62.5 -100.5t101.5 -53.5q49 0 74.5 27t25.5 67q0 39 -25.5 60t-97.5 42q-136 40 -136 142q0 57 41 94t109 37q77 0 117 -27l17 28h9l7 -138h-8q-19 50 -56 88.5t-86 38.5q-42 0 -64 -25.5t-22 -57.5
q0 -39 25 -56.5t97 -40.5q67 -22 101.5 -55t34.5 -91q0 -65 -48 -104t-120 -39zM200 539q-21 0 -26.5 3t-14.5 17l-115 173l7 6l151 -128l149 128l7 -6l-114 -171q-10 -15 -16.5 -18.5t-27.5 -3.5z" />
    <glyph glyph-name="Ydieresis" unicode="&#x178;" horiz-adv-x="635" 
d="M148 0v7q59 3 82 12q31 12 31 50v189q0 23 -26 75q-65 128 -142 258q-29 51 -60 69q-25 14 -65 16v7h322v-7q-101 -6 -101 -35q0 -10 49 -100l126 -227q94 155 129 220q42 78 42 94q0 40 -116 48v7h241v-7q-26 -2 -45 -14q-34 -20 -56 -51q-40 -58 -164 -277
q-18 -33 -23 -53.5t-5 -58.5v-151q0 -37 31 -50q26 -11 82 -14v-7h-332zM227 764q-23 0 -40 17t-17 40q0 24 17 41.5t40 17.5q26 0 43 -16.5t17 -38.5q0 -25 -17.5 -43t-42.5 -18zM445 764q-24 0 -41 17t-17 40q0 24 17 41.5t41 17.5q25 0 42 -16.5t17 -38.5q0 -25 -17 -43
t-42 -18z" />
    <glyph glyph-name="Zcaron" unicode="&#x17d;" horiz-adv-x="626" 
d="M4 0v12l480 659h-205q-56 0 -81 -5q-37 -7 -81.5 -64t-62.5 -103h-9l21 184h539v-12l-480 -659h227q120 0 147 26q30 28 63 79.5t47 87.5h9l-23 -205h-591zM327 739q-21 0 -26.5 3t-14.5 17l-115 173l7 6l151 -128l149 128l7 -6l-114 -171q-10 -15 -16.5 -18.5
t-27.5 -3.5z" />
    <glyph glyph-name="zcaron" unicode="&#x17e;" horiz-adv-x="437" 
d="M24 0v9l284 432h-83q-82 0 -101 -8q-26 -11 -74 -111h-8v130h367v-9l-282 -432q33 -1 90 -1q37 0 91 3q28 1 56 54q35 70 41 84h8v-151h-389zM218 539q-21 0 -26.5 3t-14.5 17l-115 173l7 6l151 -128l149 128l7 -6l-114 -171q-10 -15 -16.5 -18.5t-27.5 -3.5z" />
    <glyph glyph-name="florin" unicode="&#x192;" horiz-adv-x="512" 
d="M-37 -193q-52 0 -80.5 21.5t-28.5 58.5q0 23 14 39.5t36 16.5t38.5 -16t16.5 -44q0 -15 -9 -32t-19 -25q7 -10 34 -10q52 0 87.5 55t59.5 168q9 41 49 283h-106l3 15h105q25 153 104 230q57 57 144 57q45 0 79.5 -25t34.5 -60q0 -22 -13 -38.5t-36 -16.5t-39 14t-16 39
t21 65q-8 13 -33 13q-45 0 -82 -57t-55 -162l-10 -59h124l-3 -15h-124q-38 -226 -45 -255q-30 -134 -107 -200q-71 -60 -144 -60z" />
    <glyph glyph-name="circumflex" unicode="&#x2c6;" 
d="M100 534l-7 6l114 171q10 15 16.5 18.5t27.5 3.5t26.5 -3t14.5 -17l115 -173l-7 -6l-151 128z" />
    <glyph glyph-name="caron" unicode="&#x2c7;" 
d="M249 539q-21 0 -26.5 3t-14.5 17l-115 173l7 6l151 -128l149 128l7 -6l-114 -171q-10 -15 -16.5 -18.5t-27.5 -3.5z" />
    <glyph glyph-name="breve" unicode="&#x2d8;" 
d="M250 539q-46 0 -87 42.5t-67 138.5l11 4q24 -51 61 -80t82 -29t82.5 29t61.5 80l10 -4q-26 -96 -67 -138.5t-87 -42.5z" />
    <glyph glyph-name="dotaccent" unicode="&#x2d9;" 
d="M250 598q-24 0 -41 17t-17 40q0 24 17 41.5t41 17.5q25 0 42 -16.5t17 -38.5q0 -25 -17 -43t-42 -18z" />
    <glyph glyph-name="ring" unicode="&#x2da;" 
d="M250 531q-51 0 -81.5 27t-30.5 71q0 43 32.5 70.5t79.5 27.5q49 0 80.5 -27t31.5 -71q0 -43 -31 -70.5t-81 -27.5zM250 540q30 0 45 26t15 63q0 36 -15 62.5t-45 26.5t-45 -25.5t-15 -63.5q0 -37 15 -63t45 -26z" />
    <glyph glyph-name="ogonek" unicode="&#x2db;" 
d="M339 -226q-96 1 -144 19.5t-48 63.5q0 39 37.5 72t108.5 71h9q-76 -60 -76 -136q0 -36 23.5 -56t89.5 -25v-9z" />
    <glyph glyph-name="tilde" unicode="&#x2dc;" 
d="M64 555l-9 4q16 45 49 85t76 40q42 0 92.5 -29t71.5 -29q59 0 91 67l9 -3q-12 -43 -48 -84t-80 -41t-92.5 28t-73.5 28q-27 0 -46.5 -15.5t-39.5 -50.5z" />
    <glyph glyph-name="hungarumlaut" unicode="&#x2dd;" 
d="M68 534l-6 6q28 46 55.5 96l34.5 62q25 43 57 43q15 0 24.5 -11.5t9.5 -26.5q0 -17 -8 -27.5t-28 -27.5zM249 534l-6 6l90 158q25 43 57 43q14 0 24 -11.5t10 -26.5q0 -17 -8 -27.5t-28 -27.5z" />
    <glyph glyph-name="endash" unicode="&#x2013;" horiz-adv-x="544" 
d="M50 225v59h444v-59h-444z" />
    <glyph glyph-name="emdash" unicode="&#x2014;" horiz-adv-x="884" 
d="M50 225v59h784v-59h-784z" />
    <glyph glyph-name="quoteleft" unicode="&#x2018;" horiz-adv-x="185" 
d="M100 476q-78 0 -78 100q0 30 12.5 56.5t36.5 47.5t40 31.5t40 24.5l6 -10q-93 -55 -96 -135h32q34 0 49.5 -17t15.5 -42q0 -22 -16 -39t-42 -17z" />
    <glyph glyph-name="quoteright" unicode="&#x2019;" horiz-adv-x="185" 
d="M45 477l-6 10q93 55 96 135h-32q-34 0 -49.5 17t-15.5 42q0 22 16 39t42 17q78 0 78 -100q0 -30 -12.5 -56.5t-36.5 -47.5t-40 -31.5t-40 -24.5z" />
    <glyph glyph-name="quotesinglbase" unicode="&#x201a;" horiz-adv-x="185" 
d="M24 -145l-3 6q40 21 69 60.5t33 80.5h-34q-33 0 -49 18t-16 42q0 21 16.5 39t38.5 18q79 0 79 -98q0 -46 -37 -91.5t-97 -74.5z" />
    <glyph glyph-name="quotedblleft" unicode="&#x201c;" horiz-adv-x="353" 
d="M100 476q-78 0 -78 100q0 30 12.5 56.5t36.5 47.5t40 31.5t40 24.5l6 -10q-93 -55 -96 -135h32q34 0 49.5 -17t15.5 -42q0 -22 -16 -39t-42 -17zM268 476q-78 0 -78 100q0 30 12.5 56.5t36.5 47.5t40 31.5t40 24.5l6 -10q-93 -55 -96 -135h32q34 0 49.5 -17t15.5 -42
q0 -22 -16 -39t-42 -17z" />
    <glyph glyph-name="quotedblright" unicode="&#x201d;" horiz-adv-x="353" 
d="M45 477l-6 10q93 55 96 135h-32q-34 0 -49.5 17t-15.5 42q0 22 16 39t42 17q78 0 78 -100q0 -30 -12.5 -56.5t-36.5 -47.5t-40 -31.5t-40 -24.5zM213 477l-6 10q93 55 96 135h-32q-34 0 -49.5 17t-15.5 42q0 22 16 39t42 17q78 0 78 -100q0 -30 -12.5 -56.5t-36.5 -47.5
t-40 -31.5t-40 -24.5z" />
    <glyph glyph-name="quotedblbase" unicode="&#x201e;" horiz-adv-x="367" 
d="M24 -145l-3 6q40 21 69 60.5t33 80.5h-34q-33 0 -49 18t-16 42q0 21 16.5 39t38.5 18q79 0 79 -98q0 -46 -37 -91.5t-97 -74.5zM206 -145l-3 6q40 21 69 60.5t33 80.5h-34q-33 0 -49 18t-16 42q0 21 16.5 39t38.5 18q79 0 79 -98q0 -46 -37 -91.5t-97 -74.5z" />
    <glyph glyph-name="dagger" unicode="&#x2020;" horiz-adv-x="413" 
d="M203 99q-2 61 -26 389q-2 32 -18 32q-10 0 -28 -22q-29 -33 -48 -33q-20 0 -32.5 12t-12.5 32q0 13 8 22t21 9q24 0 32 -36q5 1 27 13t33 12q27 0 42 -16q-2 24 -16.5 75t-14.5 67q0 44 36 44q18 0 26.5 -13t8.5 -31q0 -16 -15 -67.5t-17 -74.5q19 16 43 16q11 0 33 -12
t27 -13q8 36 37 36q26 0 26 -31q0 -20 -13 -32t-34 -12q-18 0 -47 33q-20 22 -29 22q-16 0 -17 -32q-23 -278 -26 -389h-6z" />
    <glyph glyph-name="daggerdbl" unicode="&#x2021;" horiz-adv-x="413" 
d="M207 5q-17 0 -26 12.5t-9 29.5q0 18 14.5 52t16.5 41q-18 -16 -46 -16q-7 0 -50 10q-7 -33 -35 -33q-13 0 -19.5 9.5t-6.5 21.5q0 34 34 34q16 0 39.5 -16.5t38.5 -16.5q16 0 23 37q17 89 22 166h6q1 -13 23 -166q7 -37 23 -37q15 0 37 16.5t38 16.5q17 0 27 -9.5
t10 -24.5q0 -12 -8 -21.5t-21 -9.5q-25 0 -33 33q-40 -10 -48 -10q-26 0 -47 16q2 -9 16.5 -42t14.5 -51q0 -17 -9 -29.5t-25 -12.5zM203 367q-1 9 -23 166q-7 37 -23 37q-15 0 -37 -16.5t-38 -16.5q-17 0 -27 9.5t-10 24.5q0 12 8 21.5t21 9.5q25 0 33 -33q43 10 49 10
q25 0 46 -16q-2 9 -16.5 42t-14.5 51q0 17 9 29.5t26 12.5q16 0 25 -12.5t9 -29.5q0 -18 -14.5 -52t-16.5 -41q18 16 47 16q9 0 49 -10q8 33 36 33q25 0 25 -31q0 -34 -34 -34q-16 0 -39.5 16.5t-38.5 16.5q-16 0 -23 -37q-21 -144 -22 -166h-6z" />
    <glyph glyph-name="bullet" unicode="&#x2022;" horiz-adv-x="412" 
d="M206 191q-56 0 -96 39.5t-40 94.5t40 95.5t96 40.5t96 -40.5t40 -95.5t-40 -94.5t-96 -39.5z" />
    <glyph glyph-name="ellipsis" unicode="&#x2026;" horiz-adv-x="822" 
d="M137 -8q-26 0 -45 18.5t-19 44.5t19 45t45 19t45 -19t19 -45t-19 -44.5t-45 -18.5zM411 -8q-26 0 -45 18.5t-19 44.5t19 45t45 19t45 -19t19 -45t-19 -44.5t-45 -18.5zM685 -8q-26 0 -45 18.5t-19 44.5t19 45t45 19t45 -19t19 -45t-19 -44.5t-45 -18.5z" />
    <glyph glyph-name="perthousand" unicode="&#x2030;" horiz-adv-x="1228" 
d="M219 302q-66 0 -111.5 40.5t-45.5 114.5q0 70 48.5 116.5t108.5 46.5q68 0 116 -40.5t48 -121.5q0 -64 -50 -110t-114 -46zM223 310q37 0 61 41t24 105q0 71 -22.5 113.5t-64.5 42.5t-63.5 -43t-21.5 -108q0 -66 21.5 -108.5t65.5 -42.5zM621 -14q-65 0 -111 41t-46 114
q0 68 49 115.5t108 47.5q68 0 116 -40.5t48 -121.5q0 -65 -50 -110.5t-114 -45.5zM626 -7q35 0 59.5 43t24.5 104q0 69 -22.5 112.5t-63.5 43.5q-43 0 -64.5 -43.5t-21.5 -107.5q0 -66 22 -109t66 -43zM1002 -14q-66 0 -111.5 41t-45.5 114q0 68 49 115.5t108 47.5
q68 0 116 -40.5t48 -121.5q0 -65 -50 -110.5t-114 -45.5zM1006 -7q35 0 60 43t25 104q0 69 -22.5 112.5t-64.5 43.5t-63.5 -44t-21.5 -107q0 -65 21.5 -108.5t65.5 -43.5zM216 -96l-16 9l428 774l18 -9z" />
    <glyph glyph-name="guilsinglleft" unicode="&#x2039;" horiz-adv-x="338" 
d="M277 20l-210 164q-14 11 -18.5 18.5t-4.5 21.5q0 21 21 38l56.5 43l89 68.5t66.5 53.5l4 -4l-148 -201l148 -198z" />
    <glyph glyph-name="guilsinglright" unicode="&#x203a;" horiz-adv-x="338" 
d="M61 20l-4 4l148 198l-148 201l4 4q23 -20 66.5 -53.5l89.5 -68.5l56 -43q21 -17 21 -38q0 -14 -4.5 -21.5t-18.5 -18.5z" />
    <glyph glyph-name="fraction" unicode="&#x2044;" horiz-adv-x="323" 
d="M-103 -202l-20 11l508 941l22 -11z" />
    <glyph glyph-name="fraction" unicode="&#x2215;" horiz-adv-x="323" 
d="M-103 -202l-20 11l508 941l22 -11z" />
    <glyph glyph-name="Euro" unicode="&#x20ac;" horiz-adv-x="571" 
d="M344 -14q-101 0 -165 66t-76 189h-74v13h73q-2 51 1 86h-74v13h76q15 115 86 191t181 76q78 0 124.5 -35.5t46.5 -85.5q0 -35 -14.5 -53t-34.5 -18q-23 0 -36 14.5t-13 35.5q0 16 13 38.5t13 37.5q-4 25 -32.5 41t-69.5 16q-69 0 -111 -69t-50 -189h227v-13h-228
q-1 -33 1 -86h191v-13h-190q6 -97 48.5 -158.5t118.5 -61.5q110 0 169 126l8 -4q-33 -74 -81.5 -115.5t-127.5 -41.5z" />
    <glyph glyph-name="copyrightsound" unicode="&#x2117;" horiz-adv-x="950" 
d="M282 25v7q37 2 60 10t23 30v356q0 25 -23 31q-40 11 -63 12v7h256q67 0 108 -29.5t41 -79.5q0 -65 -51.5 -103.5t-127.5 -38.5h-56v-155q0 -23 21 -30q20 -7 73 -10v-7h-261zM476 -181q-181 0 -309 126.5t-128 305.5q0 116 58 215t159 157t220 58q180 0 307.5 -126.5
t127.5 -303.5q0 -117 -58 -216.5t-158.5 -157.5t-218.5 -58zM476 -155q167 0 283.5 118.5t116.5 287.5q0 167 -116.5 285t-283.5 118q-168 0 -285 -118t-117 -285q0 -169 117 -287.5t285 -118.5zM449 237h33q30 0 52.5 12.5t33 32t15.5 37t5 33.5q0 44 -23 80t-70 36h-46
v-231z" />
    <glyph glyph-name="trademark" unicode="&#x2122;" horiz-adv-x="652" 
d="M293 433v5q31 5 37 9q12 9 12 49v143q0 21 -11 30q-13 8 -35 8v6h99l71 -173l55 140q6 17 8 33h101v-6q-10 0 -31 -6q-10 -4 -10 -17v-192q0 -13 10 -17q5 -3 32 -7v-5h-135v5q1 0 10.5 1t17 2.5t9.5 2.5q10 6 10 18v202h-6l-88 -228h-6q-9 27 -19 52l-65 171h-6v-160
q0 -39 12 -49q8 -7 39 -12v-5h-111zM81 433v5q32 5 33 5q12 5 12 16v214h-22q-20 0 -29 -1q-10 -1 -21.5 -23.5t-16.5 -39.5h-5v74h233v-74h-5q-20 61 -37 63q-9 1 -29 1h-21v-212q0 -12 11 -17l32 -6v-5h-135z" />
    <glyph glyph-name="minus" unicode="&#x2212;" horiz-adv-x="559" 
d="M40 243v33h479v-33h-479z" />
    <glyph glyph-name="lessequal" unicode="&#x2264;" horiz-adv-x="559" 
d="M497 72l-442 211v26l442 211v-36l-397 -188l397 -188v-36zM56 0v32h447v-32h-447z" />
    <glyph glyph-name="greaterequal" unicode="&#x2265;" horiz-adv-x="559" 
d="M62 72v36l397 188l-397 188v36l442 -211v-26zM56 0v32h447v-32h-447z" />
    <glyph glyph-name="apple" unicode="&#xf8ff;" horiz-adv-x="614" 
d="M376 -2q-31 0 -53 21.5t-22 53.5q0 14 9 43t9 51v11l-7 5q-7 -1 -20 -1q-30 0 -56 18l-13 -1q-15 -22 -21 -61q-14 -83 -78 -83q-31 0 -54 22.5t-23 54.5t24 53.5t59 21.5q49 0 74 13l3 14q-10 22 -10 43q0 13 3 25l-5 13q-9 3 -27 3q-15 0 -35 -3.5t-29 -3.5
q-33 0 -55 22.5t-22 53.5t22 54t54 23q46 0 67 -42q4 -7 9 -24t11.5 -31.5t17.5 -25.5l15 1q28 30 69 30l11 7q0 28 -17 61.5t-17 52.5q0 32 22 52.5t54 20.5t53 -22.5t21 -53.5q0 -22 -10 -37.5t-22.5 -23t-29 -22.5t-26.5 -33l4 -12q38 -20 48 -58l12 -6q23 8 54.5 39
t63.5 31q30 0 51.5 -22.5t21.5 -54.5q0 -31 -21.5 -52.5t-53.5 -21.5q-24 0 -56.5 23t-59.5 27l-9 -8q-6 -35 -39 -60l-1 -10q18 -23 53 -39q55 -26 55 -76q0 -30 -23 -53t-55 -23zM292 208q29 0 48 20t19 50q0 29 -19 48.5t-48 19.5q-28 0 -47.5 -19.5t-19.5 -48.5
t19.5 -49.5t47.5 -20.5z" />
    <glyph glyph-name="e.ordn" horiz-adv-x="385" 
d="M217 278q-79 0 -122.5 49.5t-43.5 124.5q0 67 44.5 117.5t114.5 50.5t107.5 -42t37.5 -101v-13h-231q2 -151 117 -151q79 0 116 59l5 -4q-22 -39 -61.5 -64.5t-83.5 -25.5zM125 473l156 1q0 139 -72 139q-39 0 -60 -40.5t-24 -99.5z" />
    <glyph glyph-name="R.salt" horiz-adv-x="720" 
d="M45 0v7q51 3 72 11q31 12 31 50v544q0 40 -31 50q-36 12 -72 14v7h353q84 0 147 -40t63 -113q0 -72 -58.5 -116t-146.5 -62v-5q140 -23 183 -131q8 -20 45 -131q21 -63 60 -71q25 -5 60 -7v-7h-219q-22 106 -57 198q-29 74 -61 108.5t-90 34.5h-70v-273q0 -38 31 -50
q21 -8 73 -11v-7h-313zM254 355h62q73 0 121 37t48 117q0 81 -40.5 121t-102.5 40h-88v-315z" />
    <glyph glyph-name="fi" horiz-adv-x="578" 
d="M33 0v7q24 1 44 7q27 9 27 45v377h-102v16h102v29q0 121 75 202q25 26 64 45t83 19q81 0 118.5 -29.5t37.5 -76.5q0 -20 -15 -38.5t-42 -18.5q-24 0 -39 14.5t-15 37.5q0 9 1.5 17t5 15t5.5 10.5t7 9.5t6 7q-1 16 -18.5 29t-57.5 13q-50 0 -87.5 -59t-37.5 -167v-59h161
l124 8l4 -4v-394q0 -36 27 -46q19 -8 44 -9v-7h-230v7q20 1 41 7q27 9 27 45v327q-3 33 -14 50h-184v-372q0 -34 27 -45t50 -12v-7h-239z" />
    <glyph glyph-name="fl" horiz-adv-x="579" 
d="M33 0v7q24 1 44 7q27 9 27 45v377h-102v16h102v31q0 119 75 200q60 64 146 64q56 0 104 -23l54 22l4 -4v-677q0 -34 27 -46q23 -11 44 -12v-7h-231v7q22 1 42 7q28 9 28 45v534q-34 10 -34 46q0 14 6.5 25.5t14 18.5t7.5 8q-6 45 -72 45q-50 0 -87 -58.5t-37 -166.5v-59
h126v-16h-126v-372q0 -34 27 -45t50 -12v-7h-239z" />
    <glyph glyph-name="ampersand.salt" horiz-adv-x="868" 
d="M363 -18q-123 0 -215 67.5t-92 165.5q0 58 29.5 92.5t82.5 62.5q-34 24 -54 52.5t-20 75.5q0 57 45 98t113 41q65 0 106.5 -37.5t56.5 -95.5l-5 -2q-45 83 -128 83q-55 0 -89 -38.5t-34 -89.5q0 -60 19 -80q68 27 100 27q30 0 46.5 -11.5t16.5 -31.5q0 -18 -11 -29.5
t-32 -11.5q-50 0 -124 44q-49 -31 -49 -92q0 -88 83.5 -148t238.5 -58q137 2 222 74t85 165q0 77 -51 119t-117 42q-48 0 -84 -28t-36 -70q0 -45 26.5 -69.5t64.5 -24.5q35 0 60 20q-21 6 -33.5 11t-25 17.5t-12.5 29.5q0 25 15 38t30 13q24 0 43 -15t19 -48
q0 -31 -24 -54.5t-62 -23.5q-51 0 -88 31.5t-37 90.5q0 32 11.5 57.5t29 41t41 26t45 14.5t43.5 4q14 0 56.5 -2.5t53.5 -2.5q43 0 71 24t28 58q0 40 -25.5 63.5t-58.5 23.5q-20 0 -33 -11t-13 -21q2 -1 18 -8t24 -15.5t8 -22.5q0 -47 -42 -47q-22 0 -38.5 15.5t-16.5 46.5
q0 28 25 49.5t65 21.5q47 0 77 -28.5t30 -78.5q0 -63 -45.5 -96.5t-127.5 -32.5q100 -38 100 -167q0 -50 -25 -103t-72.5 -101t-128 -79t-179.5 -31z" />
    <glyph glyph-name="NUL" horiz-adv-x="0" 
 />
    <glyph glyph-name="DEL" horiz-adv-x="0" 
 />
    </font>
</defs>
</svg>
